<svg xmlns="http://www.w3.org/2000/svg" viewBox="0 0 512 512"><path d="M234.2 477c-4.4 0-8-3.6-8-8s3.6-8 8-8h44.2c4.4 0 8 3.6 8 8s-3.6 8-8 8h-44.2zM352 90.4c-2.1 0-4.2-.9-5.7-2.3-1.5-1.5-2.3-3.6-2.3-5.7s.9-4.2 2.3-5.7c1.5-1.5 3.6-2.3 5.7-2.3s4.2.9 5.7 2.3c1.5 1.5 2.3 3.6 2.3 5.7s-.9 4.2-2.3 5.7c-1.5 1.4-3.6 2.3-5.7 2.3zM58 510c-30.9 0-56-25.1-56-56v-18c0-4.4 3.6-8 8-8h14v-53H10c-4.4 0-8-3.6-8-8V148c0-4.4 3.6-8 8-8h141.7c9.5 0 18.3 3.8 24.8 10.7l1.4 1.5 1.4-1.5c6.6-6.9 15.4-10.7 24.8-10.7h25.8c4.4 0 8 3.6 8 8s-3.6 8-8 8h-25.8c-10.1 0-18.3 8.2-18.3 18.3v150.8l2.9-1.5c4.8-2.4 10-3.6 15.4-3.6h99.5l-5.2-3.6c-22.5-15.6-37-40.1-39.9-67.1l-.2-1.8h-5c-17.3 0-31.3-14.1-31.3-31.3 0-17.3 14.1-31.3 31.3-31.3h5.1l-.3-2.3c-.1-.4-.1-.8-.1-1.1v-63.1l-59.6-28.8c-2.7-1.3-4.5-4.2-4.5-7.2s1.8-5.9 4.5-7.2l150-72.4c1.1-.5 2.3-.8 3.5-.8s2.4.3 3.5.8l150 72.4h.1c2.7 1.4 4.4 4.1 4.4 7.1V144c0 4.4-3.6 8-8 8s-8-3.6-8-8V95.1l-48.1 23.2v63.1c0 .4 0 .7-.1 1.1l-.3 2.3h5.1c17.3 0 31.3 14.1 31.3 31.3 0 17.3-14.1 31.3-31.3 31.3h-5l-.2 1.8c-2.4 22.2-12.7 42.9-29.1 58.3-16.4 15.5-37.9 24.5-60.3 25.4l-1.9.1v34c0 4.4-3.6 8-8 8H40v53h432V279c0-4.4 3.6-8 8-8s8 3.6 8 8v149h14c4.4 0 8 3.6 8 8v18c0 30.9-25.1 56-56 56H58zm-40-56c0 22.1 17.9 40 40 40h396c22.1 0 40-17.9 40-40v-10H18v10zm186.3-118c-10.1 0-18.3 8.2-18.3 18.3a8.33 8.33 0 0 1-.3 2.2l-.7 2.5h153v-23H204.3zM18 359h153l-.7-2.5a8.33 8.33 0 0 1-.3-2.2c0-10.1-8.2-18.3-18.3-18.3H18v23zm0-39h133.7c5.4 0 10.6 1.2 15.4 3.6l2.9 1.5V174.3c0-10.1-8.2-18.3-18.3-18.3H18v164zm256.1-80.8c0 42.9 34.9 77.9 77.9 77.9 20.8 0 40.3-8.1 55-22.8s22.8-34.3 22.8-55v-45.5l-74.7 32.8c-1 .4-2.1.7-3.2.7s-2.2-.2-3.2-.7L274 193.8v45.4zm-20.7-38.3c-8.4 0-15.3 6.9-15.3 15.3s6.9 15.3 15.3 15.3h4.7v-30.6h-4.7zm192.5 30.6h4.7c8.4 0 15.3-6.9 15.3-15.3s-6.9-15.3-15.3-15.3h-4.7v30.6zm-171.8-55.3l77.9 34.3 77.9-34.3V126l-74.4 36c-1.1.5-2.3.8-3.5.8s-2.4-.3-3.5-.8l-74.4-35.9v50.1zm-53.7-93.8L352 145.9l107.1-51.7-.9-3.8h-78.1c-4.4 0-8-3.6-8-8s3.6-8 8-8h78.1l.9-3.8L352 18.9 220.4 82.4zM502 196.6c-2.1 0-4.2-.9-5.7-2.3-1.5-1.5-2.3-3.6-2.3-5.7s.9-4.2 2.3-5.7c1.5-1.5 3.6-2.3 5.7-2.3s4.2.9 5.7 2.3 2.3 3.6 2.3 5.7-.9 4.2-2.3 5.7c-1.5 1.4-3.6 2.3-5.7 2.3zM126.8 270c-2.1 0-4.2-.9-5.7-2.3-1.5-1.5-2.3-3.5-2.3-5.7 0-2.1.9-4.2 2.3-5.7 1.5-1.5 3.5-2.3 5.7-2.3 2.1 0 4.2.9 5.7 2.3 1.5 1.5 2.3 3.5 2.3 5.7 0 2.1-.9 4.2-2.3 5.7-1.5 1.4-3.6 2.3-5.7 2.3zM57 270c-4.4 0-8-3.6-8-8s3.6-8 8-8h32c4.4 0 8 3.6 8 8s-3.6 8-8 8H57zm0-48c-4.4 0-8-3.6-8-8s3.6-8 8-8h69.8c4.4 0 8 3.6 8 8s-3.6 8-8 8H57z"/></svg>