<svg xmlns="http://www.w3.org/2000/svg" viewBox="0 0 512 512"><path d="M176 479c-26.4 0-48-21.6-48-48V81c0-26.4 21.6-48 48-48h160c26.4 0 48 21.6 48 48v350c0 26.4-21.6 48-48 48H176zm-32-48c0 17.6 14.4 32 32 32h160c17.6 0 32-14.4 32-32v-24H144v24zm224-40V109h-12c-4.4 0-8-3.6-8-8s3.6-8 8-8h12V81c0-17.6-14.4-32-32-32H176c-17.6 0-32 14.4-32 32v12h161c4.4 0 8 3.6 8 8s-3.6 8-8 8H144v282h224zm-43.3-282c-4.4 0-8-3.6-8-8s3.6-8 8-8h11.1c4.4 0 8 3.6 8 8s-3.6 8-8 8h-11.1zM256 458c-12.7 0-23-10.3-23-23s10.3-23 23-23 23 10.3 23 23-10.3 23-23 23zm0-30c-3.9 0-7 3.1-7 7s3.1 7 7 7 7-3.1 7-7-3.1-7-7-7zm-2.4-192c-4.4 0-8-3.6-8-8s3.6-8 8-8h33.6c4.4 0 8 3.6 8 8s-3.6 8-8 8h-33.6zm68.4 0c-4.4 0-8-3.6-8-8s3.6-8 8-8h21.6c4.4 0 8 3.6 8 8s-3.6 8-8 8H322zm-153.6 56c-4.4 0-8-3.6-8-8s3.6-8 8-8h14.4c4.4 0 8 3.6 8 8s-3.6 8-8 8h-14.4zm42 0c-4.4 0-8-3.6-8-8s3.6-8 8-8H244c4.4 0 8 3.6 8 8s-3.6 8-8 8h-33.6zm68.4 0c-4.4 0-8-3.6-8-8s3.6-8 8-8h64.8c4.4 0 8 3.6 8 8s-3.6 8-8 8h-64.8zm-110.4 56c-4.4 0-8-3.6-8-8s3.6-8 8-8h14.4c4.4 0 8 3.6 8 8s-3.6 8-8 8h-14.4zm42 0c-4.4 0-8-3.6-8-8s3.6-8 8-8H292c4.4 0 8 3.6 8 8s-3.6 8-8 8h-81.6zm116.4 0c-4.4 0-8-3.6-8-8s3.6-8 8-8h16.8c4.4 0 8 3.6 8 8s-3.6 8-8 8h-16.8zM199.4 238.6c-.9 0-1.7-.1-2.5-.4-4.2-1.4-6.5-5.9-5.1-10.1l30-90c1.1-3.3 4.1-5.5 7.6-5.5.9 0 1.7.1 2.5.4 2 .7 3.7 2.1 4.6 4s1.1 4.1.4 6.1l-30 90c-1 3.3-4.1 5.5-7.5 5.5zm-20-30c-2.1 0-4.2-.9-5.7-2.3l-20-20c-1.5-1.5-2.3-3.5-2.3-5.7s.8-4.1 2.3-5.7l20-20c1.5-1.5 3.5-2.3 5.6-2.3s4.1.8 5.6 2.3c3.1 3.1 3.2 8.2.1 11.3l-14.4 14.4 14.3 14.3c1.5 1.5 2.3 3.5 2.3 5.7.2 4.4-3.4 8-7.8 8zm70 0c-2.1 0-4.1-.8-5.7-2.3-1.5-1.5-2.3-3.5-2.3-5.7s.8-4.1 2.3-5.7l14.3-14.3-14.3-14.3a7.91 7.91 0 0 1 0-11.2c1.5-1.5 3.5-2.4 5.7-2.4 2.1 0 4.1.8 5.6 2.3l20 20c1.5 1.5 2.3 3.5 2.3 5.7s-.8 4.1-2.3 5.7l-20 20c-1.5 1.3-3.5 2.2-5.6 2.2z"/></svg>