<svg xmlns="http://www.w3.org/2000/svg" xmlns:xlink="http://www.w3.org/1999/xlink" height="683" viewBox="-8 0 512 512.032" width="683"><path d="M128.016 472.023c-4.422 0-8-3.574-8-8 0-30.87 25.13-55.992 56-55.992 4.426 0 8 3.578 8 8a7.99 7.99 0 0 1-8 8c-22.055 0-40 17.938-40 39.992a7.99 7.99 0 0 1-8 8zm0 0"/><path d="M208.016 424.04l-32-.008a8 8 0 0 1-8-8c0-4.422 3.586-8 8-8l32 .008a8 8 0 0 1 8 8c0 4.426-3.582 8-8 8zm0 0"/><use xlink:href="#B"/><path d="M368.016 472.023c-4.422 0-8-3.574-8-8 0-22.055-17.945-39.992-40-39.992-4.422 0-8-3.574-8-8s3.578-8 8-8c30.87 0 56 25.12 56 55.992a7.99 7.99 0 0 1-8 8zm0 0"/><path d="M288.016 424.04a8 8 0 0 1-8-8c0-4.414 3.578-8 8-8l32-.008a8 8 0 0 1 8 8c0 4.418-3.574 8-8 8zm0 0"/><use xlink:href="#B" x="240"/><path d="M352.016 512.03h-208c-4.422 0-8-3.574-8-8s3.578-8 8-8h208c4.426 0 8 3.578 8 8a7.99 7.99 0 0 1-8 8zm-144-88c-4.422 0-8-3.574-8-8v-25.605c0-4.426 3.578-8 8-8a7.99 7.99 0 0 1 8 8v25.605a7.99 7.99 0 0 1-8 8zm0 0"/><path d="M288.016 424.03c-4.422 0-8-3.574-8-8v-25.598c0-4.426 3.578-8 8-8a7.99 7.99 0 0 1 8 8v25.598a7.99 7.99 0 0 1-8 8zm0 0"/><path d="M248.016 408.03c-52.937 0-96-43.062-96-96 0-4.422 3.578-8 8-8s8 3.578 8 8c0 44.113 35.887 80 80 80s80-35.887 80-80c0-4.422 3.578-8 8-8s8 3.578 8 8c0 52.938-43.062 96-96 96zm0 0"/><path d="M160.016 320.04c-4.422 0-8-3.574-8-8v-72c0-4.422 3.578-8 8-8s8 3.578 8 8v72.008a7.99 7.99 0 0 1-8 8zm176 .007c-4.422 0-8-3.574-8-8V240.03c0-4.422 3.578-8 8-8s8 3.578 8 8v72.016a7.99 7.99 0 0 1-8 8zm0 0"/><path d="M336.016 248.03c-4.422 0-8-3.574-8-8 0-17.648-14.352-32-32-32-4.422 0-8-3.574-8-8s3.578-8 8-8c26.473 0 48 21.527 48 48a7.99 7.99 0 0 1-8 8zm0 0"/><path d="M296.016 208.03c-4.422 0-8-3.574-8-8v-32c0-4.422 3.578-8 8-8s8 3.578 8 8v32a7.99 7.99 0 0 1-8 8zm0 0"/><path d="M296.016 176.03h-64c-4.422 0-8-3.574-8-8s3.578-8 8-8h64c4.426 0 8 3.578 8 8a7.99 7.99 0 0 1-8 8zm0 0"/><path d="M160.016 248.03c-4.422 0-8-3.574-8-8 0-44.1 35.887-79.992 80-79.992 4.426 0 8 3.578 8 8a7.99 7.99 0 0 1-8 8c-35.3 0-64 28.703-64 63.992a7.99 7.99 0 0 1-8 8zm176 40a7.99 7.99 0 0 1-5.656-2.344l-24-24a7.999 7.999 0 1 1 11.313-11.312l24 24a7.99 7.99 0 0 1 0 11.313 7.98 7.98 0 0 1-5.656 2.344zm0 0"/><path d="M248.016 280.03c-35.88 0-66.504-16.262-67.793-16.953-3.887-2.094-5.344-6.934-3.254-10.832 2.086-3.88 6.918-5.375 10.832-3.262.277.152 28.48 15.047 60.215 15.047 31.895 0 59.93-14.887 60.207-15.047 3.883-2.1 8.746-.633 10.832 3.254s.633 8.746-3.254 10.832c-1.28.7-31.906 16.96-67.785 16.96zm0 0"/><path d="M160.016 288.03a7.99 7.99 0 0 1-5.656-13.656l24-24a7.999 7.999 0 1 1 11.313 11.313l-24 24a7.98 7.98 0 0 1-5.656 2.344zm64 152a7.99 7.99 0 0 1-5.656-2.344l-16-15.992a7.99 7.99 0 0 1 0-11.312 8 8 0 0 1 11.313 0l16 15.992a7.99 7.99 0 0 1 0 11.313 7.98 7.98 0 0 1-5.656 2.344zm0 0"/><path d="M224.016 440.03c-3.352 0-6.473-2.12-7.582-5.473a7.99 7.99 0 0 1 5.055-10.117l24-8c4.215-1.4 8.72.863 10.12 5.055a8 8 0 0 1-5.059 10.121l-24 8a8.16 8.16 0 0 1-2.535.414zm48 0a7.99 7.99 0 0 1-5.656-13.656l16-15.992a8 8 0 0 1 11.313 0 7.99 7.99 0 0 1 0 11.313l-16 15.992a7.98 7.98 0 0 1-5.656 2.344zm0 0"/><path d="M272.016 440.03c-.832 0-1.687-.137-2.527-.414l-24-8a8 8 0 0 1-5.055-10.121c1.398-4.184 5.887-6.465 10.117-5.055l24 8a8 8 0 0 1 5.059 10.117c-1.12 3.352-4.242 5.473-7.594 5.473zm80 72c-4.422 0-8-3.574-8-8s3.578-8 8-8a8 8 0 0 0 8-8c0-4.422 3.578-8 8-8s8 3.578 8 8c0 13.234-10.77 24-24 24zm-208 0c-13.23 0-24-10.766-24-24 0-4.422 3.578-8 8-8s8 3.578 8 8 3.586 8 8 8c4.426 0 8 3.578 8 8a7.99 7.99 0 0 1-8 8zm0 0"/><use xlink:href="#C"/><use xlink:href="#C" x="-192" y="-184.022"/><path d="M56.016 312.023c-30.87 0-56-25.13-56-56s25.12-56 56-56.008a55.68 55.68 0 0 1 39.602 16.398c10.574 10.578 16.398 24.64 16.398 39.602 0 30.88-25.13 56.008-56 56.008zm.016-96.008c-22.062.008-40.016 17.953-40.016 40.008s17.945 40 40 40 40-17.945 40-40.008c0-22.055-17.937-40-39.984-40zm-.016 48.008c-4.422 0-8-3.574-8-8v-24.016c0-4.422 3.578-8 8-8s8 3.578 8 8v24.016a7.99 7.99 0 0 1-8 8zm0 0"/><path d="M128.016 264.03h-23.992c-4.422 0-8-3.574-8-8s3.578-8 8-8h23.992c4.426 0 8 3.578 8 8a7.99 7.99 0 0 1-8 8zm0 0"/><use xlink:href="#C" x="192.008" y="-184.007"/><path d="M440.023 312.03c-30.87 0-56-25.13-56-56.016 0-30.87 25.12-55.992 55.992-55.992s56 25.13 56 56c-.008 30.87-25.13 56-55.992 56.008zm-.008-96.008c-22.055 0-39.992 17.938-39.992 39.992 0 22.063 17.945 40.016 40 40.016 22.047-.008 39.984-17.953 39.992-40.008 0-22.055-17.945-40-40-40zm.008 48.008a8 8 0 0 1-8-8l-.008-24.008c0-4.414 3.578-8 8-8a8 8 0 0 1 8 8l.008 24.008c0 4.418-3.574 8-8 8zm0 0"/><path d="M392.016 264.04l-24-.008a8 8 0 0 1-8-8c0-4.422 3.586-8 8-8l24 .008a8 8 0 0 1 8 8c0 4.426-3.582 8-8 8zm-2.32-117.438c-4.422 0-8.04-3.578-8.04-8s3.535-8 7.953-8h.086c4.418 0 8 3.574 8 8a8 8 0 0 1-8 8zm0 0"/><path d="M389.457 170.6c-30.883 0-56-25.13-56-56.016 0-30.875 25.117-56 55.992-56s55.992 25.125 55.992 56-25.12 56-55.984 56.016zm-.008-96.016c-22.06 0-39.992 17.94-39.992 40S367.39 154.6 389.45 154.6c22.047-.016 39.992-17.96 39.992-40.016s-17.937-40-39.992-40zm.008 48.016a8 8 0 0 1-8-7.992L381.44 90.6c0-4.426 3.574-8.008 7.992-8.008h.008a8 8 0 0 1 8 7.992l.016 24.008a8.01 8.01 0 0 1-8 8.008zm0 0"/><path d="M338.527 173.52a7.99 7.99 0 0 1-5.656-13.656l16.977-16.96a8 8 0 0 1 11.313 0 7.99 7.99 0 0 1 0 11.313l-16.977 16.96a7.98 7.98 0 0 1-5.656 2.344zM248.273 88c-4.426 0-8.043-3.574-8.043-8s3.54-8 7.953-8h.1a8 8 0 1 1 0 16zm0 0"/><path d="M248.023 112.016c-30.88 0-56.008-25.13-56.008-56.016 0-30.87 25.13-56 56-56s56 25.13 56 56c0 30.863-25.12 56-55.992 56.016zM248.016 16c-22.055 0-40 17.945-40 40 0 22.063 17.945 40.016 40 40.016 22.055-.016 40-17.96 40-40.016s-17.945-40-40-40zm0 48.016c-4.422 0-8-3.574-8-8V32c0-4.426 3.578-8 8-8a7.99 7.99 0 0 1 8 8v24.016a7.99 7.99 0 0 1-8 8zm0 0"/><path d="M248.03 136.016c-4.422 0-8-3.574-8-8v-24c0-4.422 3.578-8 8-8s8 3.578 8 8v24a7.99 7.99 0 0 1-8 8zm-141.167 10.55c-4.422 0-8.04-3.574-8.04-8s3.535-8 7.953-8h.086a8 8 0 0 1 8 8c0 4.426-3.582 8-8 8zm0 0"/><path d="M106.6 170.594A55.61 55.61 0 0 1 67 154.176c-10.566-10.574-16.398-24.648-16.4-39.602 0-30.87 25.117-56 55.992-56s55.992 25.13 55.992 56c.008 30.867-25.105 55.992-55.984 56.02zm-.008-96.02c-22.06 0-39.992 17.945-39.992 40a39.77 39.77 0 0 0 11.711 28.297 39.7 39.7 0 0 0 28.273 11.723c22.063-.02 40.008-17.97 40-40.02 0-22.055-17.937-40-39.992-40zm0 48.012c-4.426 0-8-3.578-8-8V90.574c0-4.422 3.574-8 8-8s8 3.578 8 8v24.012c0 4.422-3.578 8-8 8zm0 0"/><path d="M157.52 173.504a7.99 7.99 0 0 1-5.656-2.344l-16.97-16.97a8 8 0 0 1 11.313-11.312l16.97 16.97a7.99 7.99 0 0 1 0 11.313 8.01 8.01 0 0 1-5.656 2.344zm0 0"/><defs ><path id="B" d="M128.016 496.03c-4.422 0-8-3.574-8-8v-21.71c0-4.426 3.578-8 8-8a7.99 7.99 0 0 1 8 8v21.71a7.99 7.99 0 0 1-8 8zm0 0"/><path id="C" d="M248.258 472.03c-4.426 0-8.043-3.574-8.043-8s3.54-8 7.953-8h.1c4.414 0 8 3.578 8 8a8 8 0 0 1-8 8zm0 0"/></defs></svg>