<svg xmlns="http://www.w3.org/2000/svg" height="683" viewBox="0 0 512 512" width="683"><path d="M45.94 147.8h21.32c4.137 0 7.492-3.355 7.492-7.492a7.5 7.5 0 0 0-7.492-7.496H45.94c-4.14 0-7.496 3.355-7.496 7.496S41.8 147.8 45.94 147.8zm175.28-15H91.137c-4.137 0-7.492 3.355-7.492 7.496a7.49 7.49 0 0 0 7.492 7.492H221.22c4.14 0 7.496-3.355 7.496-7.492a7.5 7.5 0 0 0-7.496-7.496zm-19.76 37.985H153.9c-4.14 0-7.496 3.352-7.496 7.492s3.355 7.492 7.496 7.492h47.57c4.137 0 7.492-3.352 7.492-7.492s-3.355-7.492-7.492-7.492zm-72.452 0H114.18c-4.137 0-7.492 3.352-7.492 7.492s3.355 7.492 7.492 7.492h14.828c4.14 0 7.496-3.352 7.496-7.492s-3.355-7.492-7.496-7.492zm0 0"/><path d="M90.316 170.785H45.94c-4.14 0-7.496 3.352-7.496 7.492s3.355 7.492 7.496 7.492h44.375c4.137 0 7.492-3.352 7.492-7.492s-3.355-7.492-7.492-7.492zM33.273 50.754c0 12.125 9.863 21.988 21.988 21.988s21.992-9.863 21.992-21.988-9.867-21.992-21.992-21.992-21.988 9.867-21.988 21.992zm28.992 0a7.02 7.02 0 0 1-7.004 7.004c-3.863 0-7.004-3.145-7.004-7.004a7.01 7.01 0 0 1 7.004-7.004c3.86 0 7.004 3.14 7.004 7.004zm26.993 0c0 12.125 9.867 21.988 21.992 21.988s21.988-9.863 21.988-21.988-9.863-21.992-21.988-21.992-21.992 9.867-21.992 21.992zm28.992 0c0 3.86-3.14 7.004-7.004 7.004a7.02 7.02 0 0 1-7.004-7.004c0-3.863 3.145-7.004 7.004-7.004a7.01 7.01 0 0 1 7.004 7.004zm26.996 0c0 12.125 9.863 21.988 21.988 21.988s21.988-9.863 21.988-21.988-9.863-21.992-21.988-21.992-21.988 9.867-21.988 21.992zm28.992 0c0 3.86-3.14 7.004-7.004 7.004a7.02 7.02 0 0 1-7.004-7.004c0-3.863 3.145-7.004 7.004-7.004a7.01 7.01 0 0 1 7.004 7.004zm242.22 441.966h25.012c4.137 0 7.492-3.355 7.492-7.492a7.5 7.5 0 0 0-7.492-7.496h-25.012c-4.14 0-7.496 3.355-7.496 7.496s3.355 7.492 7.496 7.492zm-2.18-258.868h-8.625c-4.137 0-7.492 3.352-7.492 7.492s3.355 7.492 7.492 7.492h8.625c4.14 0 7.496-3.352 7.496-7.492s-3.355-7.492-7.496-7.492zm0 0"/><path d="M452.27 233.852h-16.95c-4.137 0-7.492 3.352-7.492 7.492s3.355 7.492 7.492 7.492h16.95c4.137 0 7.492-3.352 7.492-7.492s-3.355-7.492-7.492-7.492zM511.43 32.98C511.43 14.797 496.637 0 478.453 0h-63.93c-4.14 0-7.492 3.355-7.492 7.492s3.352 7.496 7.492 7.496h63.93c9.922 0 17.992 8.07 17.992 17.992v53.96H14.988V32.98c0-9.922 8.07-17.992 17.992-17.992h334.918c4.14 0 7.492-3.355 7.492-7.496A7.49 7.49 0 0 0 367.898 0H32.98C14.793 0 0 14.797 0 32.98v362.566c0 18.184 14.793 32.98 32.98 32.98h145.805v26.87H156.16c-15.094 0-27.37 12.28-27.37 27.37v16.188c0 6.887 5.602 12.492 12.488 12.492l347.285.457c12.926 0 23.438-10.516 23.438-23.437V464.76zM32.98 413.54c-9.922 0-17.992-8.07-17.992-17.992v-28.422h330.934v46.414zm299.664 14.988h13.277v26.87h-13.277zm-14.984 0v26.87h-123.9v-26.87zM143.773 496.46v-13.7c0-6.824 5.56-12.383 12.387-12.383h189.762v18.082c0 2.805.496 5.496 1.406 7.992zm353.238-7.992a8.46 8.46 0 0 1-8.449 8.449H369.36a8.46 8.46 0 0 1-8.449-8.449v-16.215h136.102zm0-31.203H360.9v-130.7c0-4.137-3.355-7.492-7.492-7.492a7.5 7.5 0 0 0-7.496 7.492v25.582H14.988V101.93h481.457v114.668a23.33 23.33 0 0 0-7.883-1.367H369.36c-12.922 0-23.437 10.516-23.437 23.438v42.262c0 4.14 3.355 7.492 7.496 7.492a7.49 7.49 0 0 0 7.492-7.492v-11.06h136.102zm0-202.38H360.9v-16.22c0-4.656 3.8-8.45 8.45-8.45h119.203c4.66 0 8.453 3.793 8.453 8.45v16.22zm-120.984 51.9h27.625c4.137 0 7.492-3.355 7.492-7.492a7.5 7.5 0 0 0-7.492-7.496h-27.625c-4.14 0-7.492 3.355-7.492 7.496a7.49 7.49 0 0 0 7.492 7.492zm49.1 0h11.785c4.137 0 7.492-3.355 7.492-7.492a7.5 7.5 0 0 0-7.492-7.496h-11.785c-4.137 0-7.492 3.355-7.492 7.496a7.49 7.49 0 0 0 7.492 7.492zm0 0"/><path d="M456.602 306.785h25.293c4.14 0 7.496-3.355 7.496-7.492a7.5 7.5 0 0 0-7.496-7.496h-25.293c-4.137 0-7.492 3.355-7.492 7.496a7.49 7.49 0 0 0 7.492 7.492zm-80.575 33.695h12.293c4.14 0 7.496-3.355 7.496-7.496s-3.355-7.492-7.496-7.492h-12.293c-4.14 0-7.492 3.355-7.492 7.492s3.352 7.496 7.492 7.496zm0 0"/><path d="M451.672 332.984c0-4.137-3.352-7.492-7.492-7.492h-35.184c-4.137 0-7.492 3.355-7.492 7.492a7.5 7.5 0 0 0 7.492 7.496h35.184c4.14 0 7.492-3.355 7.492-7.496zm30.223-7.492H468c-4.137 0-7.492 3.355-7.492 7.492A7.5 7.5 0 0 0 468 340.48h13.895c4.14 0 7.496-3.355 7.496-7.496s-3.355-7.492-7.496-7.492zM376.027 371.48h24.6c4.137 0 7.492-3.355 7.492-7.492a7.5 7.5 0 0 0-7.492-7.496h-24.6c-4.14 0-7.492 3.355-7.492 7.496a7.49 7.49 0 0 0 7.492 7.492zm45.1 0h31.133c4.137 0 7.492-3.355 7.492-7.492a7.5 7.5 0 0 0-7.492-7.496h-31.133c-4.14 0-7.496 3.355-7.496 7.496s3.355 7.492 7.496 7.492zm0 0"/><path d="M481.895 356.492h-9.562c-4.137 0-7.492 3.355-7.492 7.496a7.49 7.49 0 0 0 7.492 7.492h9.563c4.14 0 7.496-3.355 7.496-7.492a7.5 7.5 0 0 0-7.496-7.496zm-105.868 48.684h37.613c4.14 0 7.496-3.355 7.496-7.496s-3.355-7.492-7.496-7.492h-37.613c-4.14 0-7.492 3.355-7.492 7.492s3.352 7.496 7.492 7.496zm69.067-14.988h-10.2c-4.137 0-7.492 3.355-7.492 7.492a7.5 7.5 0 0 0 7.492 7.496h10.2c4.137 0 7.492-3.355 7.492-7.496a7.49 7.49 0 0 0-7.492-7.492zm36.8 0h-17.758c-4.137 0-7.492 3.355-7.492 7.492a7.5 7.5 0 0 0 7.492 7.496h17.758c4.14 0 7.496-3.355 7.496-7.496s-3.355-7.492-7.496-7.492zm0 0"/></svg>