<svg xmlns="http://www.w3.org/2000/svg" viewBox="0 0 480 480"><path d="M106.904 376.368A55.54 55.54 0 0 0 128 336c0-52.896-30.456-64-56-64s-56 11.104-56 64c.93 15.862 8.6 30.566 21.096 40.392C15.9 379.005-.03 397.033 0 418.4V480h16v-61.6c0-14.58 11.82-26.4 26.4-26.4h17.76l-11.592 29.024a8 8 0 0 0 1.776 8.632l16 16a8 8 0 0 0 11.312 0l16-16a8 8 0 0 0 1.776-8.632L83.816 392H101.6c14.58 0 26.4 11.82 26.4 26.4V480h16v-61.6c.043-21.376-15.88-39.418-37.096-42.032zm-74.488-48.832C34.584 300.728 47.2 288 72 288c22.704 0 35.2 10.736 38.776 33.136l-26.656-16a8 8 0 0 0-10.976 2.745 7.96 7.96 0 0 0-.728 1.583c-4.048 12.144-25.896 16.736-40 18.072zM72 428.664l-6.616-6.616L72 405.536l6.616 16.536L72 428.664zM72 376c-17.843-3.04-32.686-15.412-38.888-32.416 13.696-1.128 38.4-5.28 49.92-20.432l28.6 17.16C108.416 359.896 84.28 376 72 376zm-40 72h16v32H32zm64 0h16v32H96zm178.904-71.632A55.54 55.54 0 0 0 296 336c0-52.896-30.456-64-56-64s-56 11.104-56 64c.93 15.862 8.6 30.566 21.096 40.392C183.9 379.005 167.97 397.033 168 418.4V480h16v-61.6c0-14.58 11.82-26.4 26.4-26.4h17.76l-11.608 29.024a8 8 0 0 0 1.776 8.632l16 16a8 8 0 0 0 11.312 0l16-16a8 8 0 0 0 1.776-8.632L251.816 392H269.6c14.58 0 26.4 11.82 26.4 26.4V480h16v-61.6c.043-21.376-15.88-39.418-37.096-42.032zm-74.488-48.832C202.584 300.728 215.2 288 240 288c22.704 0 35.2 10.736 38.776 33.136l-26.656-16a8 8 0 0 0-10.976 2.745 7.96 7.96 0 0 0-.728 1.583c-4.048 12.144-25.896 16.736-40 18.072zM240 428.664l-6.616-6.616L240 405.536l6.616 16.536-6.616 6.592zM240 376c-17.843-3.04-32.686-15.412-38.888-32.416 13.696-1.128 38.4-5.28 49.92-20.432l28.6 17.16C276.416 359.896 252.28 376 240 376zm-40 72h16v32h-16zm64 0h16v32h-16zm197.112-64.872a42.29 42.29 0 0 0-18.208-6.736C455.4 366.566 463.07 351.862 464 336c0-52.896-30.456-64-56-64s-56 11.104-56 64c.93 15.862 8.6 30.566 21.096 40.392C351.9 379.005 335.97 397.033 336 418.4V480h16v-61.6c0-14.58 11.82-26.4 26.4-26.4h17.76l-11.608 29.024a8 8 0 0 0 1.776 8.632l16 16a8 8 0 0 0 11.312 0l16-16a8 8 0 0 0 1.776-8.632L419.816 392H437.6c14.58 0 26.4 11.82 26.4 26.4V480h16v-61.6c.006-14.178-7.084-27.418-18.888-35.272zm-92.696-55.592C370.584 300.728 383.2 288 408 288c22.704 0 35.2 10.736 38.776 33.136l-26.656-16a8 8 0 0 0-10.976 2.745 7.96 7.96 0 0 0-.728 1.583c-4.048 12.144-25.896 16.736-40 18.072zM408 428.688l-6.616-6.616L408 405.536l6.616 16.536-6.616 6.616zM408 376c-17.843-3.04-32.686-15.412-38.888-32.416 13.696-1.128 38.4-5.28 49.92-20.432l28.6 17.16C444.416 359.896 420.28 376 408 376zm-40 72h16v32h-16zm64 0h16v32h-16zm24-368H328c-13.255 0-24 10.745-24 24v8h-64V48c0-13.255-10.745-24-24-24H24C10.745 24 0 34.745 0 48v96c0 13.255 10.745 24 24 24h17.6l24.272 29.12a8 8 0 0 0 11.268 1.02 7.99 7.99 0 0 0 1.02-1.02L102.4 168H136v32c0 13.255 10.745 24 24 24h49.6l24.272 29.12a8 8 0 0 0 11.268 1.02 7.99 7.99 0 0 0 1.02-1.02L270.4 224H320c13.255 0 24-10.745 24-24v-8h41.6l24.272 29.12a8 8 0 0 0 11.268 1.02 7.99 7.99 0 0 0 1.02-1.02L446.4 192h9.6c13.255 0 24-10.745 24-24v-64c0-13.255-10.745-24-24-24zM98.664 152a8 8 0 0 0-6.144 2.88L72 179.504 51.48 154.88a8 8 0 0 0-6.144-2.88H24a8 8 0 0 1-8-8V48a8 8 0 0 1 8-8h192a8 8 0 0 1 8 8v96a8 8 0 0 1-8 8H98.664zM328 200a8 8 0 0 1-8 8h-53.336a8 8 0 0 0-6.144 2.88L240 235.504l-20.52-24.624a8 8 0 0 0-6.144-2.88H160a8 8 0 0 1-8-8v-32h64c13.255 0 24-10.745 24-24v-16h80a8 8 0 0 1 8 8v64zm136-32a8 8 0 0 1-8 8h-13.336a8 8 0 0 0-6.144 2.88L416 203.504l-20.52-24.624a8 8 0 0 0-6.144-2.88H344v-40c0-13.255-10.745-24-24-24v-8a8 8 0 0 1 8-8h128a8 8 0 0 1 8 8v64zM32 56h16v16H32zm32 0h16v16H64zm32 0h16v16H96zm160 88h16v16h-16zm32 0h16v16h-16zm80-32h16v16h-16zm32 0h16v16h-16zm32 0h16v16h-16zM280 0v16c26.497.03 47.97 21.503 48 48h16c-.04-35.33-28.67-63.96-64-64zM112 208H96c.04 35.33 28.67 63.96 64 64v-16c-26.497-.03-47.97-21.503-48-48z"/></svg>