<svg xmlns="http://www.w3.org/2000/svg" xmlns:xlink="http://www.w3.org/1999/xlink" height="682" viewBox="0 0 511.998 511" width="682"><path d="M58.96 187.047a7.47 7.47 0 0 0 10.598 0c2.926-2.926 2.926-7.672 0-10.598l-18.195-18.195 18.195-18.2c2.926-2.93 2.926-7.672 0-10.598s-7.672-2.926-10.598 0l-23.5 23.49c-1.406 1.406-2.195 3.313-2.195 5.297s.8 3.895 2.195 5.3zm74.36-28.793l-18.195 18.195c-2.926 2.926-2.926 7.672.004 10.598a7.47 7.47 0 0 0 10.594 0l23.496-23.496c2.926-2.926 2.926-7.672 0-10.594l-23.496-23.496a7.493 7.493 0 1 0-10.594 10.598zm0 0"/><path d="M81.172 188.723a7.5 7.5 0 0 0 9.715-4.234l18.457-46.988c1.516-3.852-.383-8.2-4.234-9.715a7.49 7.49 0 0 0-9.71 4.234l-18.46 46.988c-1.512 3.852.383 8.203 4.234 9.715zm-36.164 44.48h50.48c4.137 0 7.492-3.355 7.492-7.496a7.49 7.49 0 0 0-7.492-7.492h-50.48c-4.14 0-7.492 3.355-7.492 7.492s3.352 7.496 7.492 7.496zm166.746-14.988h-88.75c-4.137 0-7.492 3.355-7.492 7.492a7.5 7.5 0 0 0 7.492 7.496h88.75c4.14 0 7.496-3.355 7.496-7.496s-3.355-7.492-7.496-7.492zM45.008 264.8h21.504c4.137 0 7.492-3.355 7.492-7.496a7.49 7.49 0 0 0-7.492-7.492H45.008c-4.14 0-7.492 3.355-7.492 7.492s3.352 7.496 7.492 7.496zm0 0"/><path d="M184.34 249.82c-4.14 0-7.492 3.355-7.492 7.492s3.352 7.496 7.492 7.496h13.094c4.14 0 7.496-3.355 7.496-7.496s-3.355-7.492-7.496-7.492zm-19.723 7.493c0-4.137-3.355-7.492-7.492-7.492h-64.32c-4.14 0-7.492 3.355-7.492 7.492s3.352 7.496 7.492 7.496h64.32c4.137 0 7.492-3.355 7.492-7.496zm49.086 0c0 4.14 3.355 7.496 7.492 7.496h24.527c4.14 0 7.496-3.355 7.496-7.496s-3.355-7.492-7.496-7.492h-24.527c-4.137 0-7.492 3.355-7.492 7.492zm-40.808-93.047h25.87c4.14 0 7.496-3.355 7.496-7.496s-3.355-7.492-7.496-7.492h-25.87c-4.14 0-7.496 3.355-7.496 7.492a7.5 7.5 0 0 0 7.496 7.496zm0 0"/><path d="M227.742 164.266h157.855c4.14 0 7.492-3.355 7.492-7.496a7.49 7.49 0 0 0-7.492-7.492H227.742c-4.14 0-7.496 3.355-7.496 7.492a7.5 7.5 0 0 0 7.496 7.496zm133.878 17.98h-63.945c-4.137 0-7.492 3.355-7.492 7.496a7.49 7.49 0 0 0 7.492 7.492h63.945c4.137 0 7.492-3.355 7.492-7.492a7.5 7.5 0 0 0-7.492-7.496zm-87.92 0h-21.98c-4.14 0-7.492 3.355-7.492 7.496a7.49 7.49 0 0 0 7.492 7.492h21.98c4.14 0 7.492-3.355 7.492-7.492s-3.352-7.496-7.492-7.496zm-100.805 14.988h53.848c4.137 0 7.492-3.355 7.492-7.492a7.5 7.5 0 0 0-7.492-7.496h-53.848c-4.14 0-7.496 3.355-7.496 7.496s3.355 7.492 7.496 7.492zM157.22 281.16h-50.477c-4.14 0-7.496 3.355-7.496 7.492s3.355 7.492 7.496 7.492h50.477c4.137 0 7.492-3.355 7.492-7.492s-3.355-7.492-7.492-7.492zm-73.43 0H45c-4.14 0-7.492 3.355-7.492 7.492s3.352 7.492 7.492 7.492H83.8c4.14 0 7.492-3.355 7.492-7.492s-3.352-7.492-7.492-7.492zm164.933 0h-65.94c-4.14 0-7.492 3.355-7.492 7.492s3.352 7.492 7.492 7.492h65.94c4.137 0 7.492-3.355 7.492-7.492s-3.355-7.492-7.492-7.492zm89.175-38.492h-36.06c-4.137 0-7.492 3.355-7.492 7.492a7.5 7.5 0 0 0 7.492 7.496h36.06c4.14 0 7.492-3.355 7.492-7.496a7.49 7.49 0 0 0-7.492-7.492zm62.572 14.988h50.902c4.14 0 7.496-3.355 7.496-7.496s-3.355-7.492-7.496-7.492H400.47c-4.14 0-7.492 3.355-7.492 7.492a7.5 7.5 0 0 0 7.492 7.496zm-25.454-14.988h-11.664c-4.14 0-7.496 3.355-7.496 7.492a7.5 7.5 0 0 0 7.496 7.496h11.664c4.14 0 7.492-3.355 7.492-7.496a7.49 7.49 0 0 0-7.492-7.492zm-73.176 96.645h36.06a7.49 7.49 0 0 0 7.492-7.492c0-4.137-3.352-7.492-7.492-7.492h-36.06c-4.137 0-7.492 3.355-7.492 7.492s3.355 7.492 7.492 7.492zm98.63 0h50.902c4.14 0 7.496-3.352 7.496-7.492s-3.355-7.492-7.496-7.492H400.47c-4.14 0-7.492 3.355-7.492 7.492s3.355 7.492 7.492 7.492zm0 0"/><path d="M363.352 339.313h11.664c4.14 0 7.496-3.352 7.496-7.492s-3.355-7.492-7.496-7.492h-11.664c-4.14 0-7.492 3.355-7.492 7.492a7.49 7.49 0 0 0 7.492 7.492zm-25.454 66.675h-36.06c-4.137 0-7.492 3.355-7.492 7.492s3.355 7.492 7.492 7.492h36.06c4.14 0 7.492-3.355 7.492-7.492s-3.352-7.492-7.492-7.492zm113.472 0h-50.9c-4.14 0-7.492 3.355-7.492 7.492s3.352 7.492 7.492 7.492h50.902c4.14 0 7.496-3.355 7.496-7.492s-3.355-7.492-7.496-7.492zm-76.354 0h-11.664c-4.14 0-7.496 3.355-7.496 7.492s3.355 7.492 7.496 7.492h11.664c4.14 0 7.492-3.355 7.492-7.492s-3.352-7.492-7.492-7.492zm0 0"/><path d="M479.023.5H32.98C14.797.5 0 15.293 0 33.48v362.566c0 18.184 14.797 32.977 32.98 32.977h28.2c4.137 0 7.492-3.352 7.492-7.492s-3.355-7.492-7.492-7.492h-28.2c-9.922 0-17.992-8.07-17.992-17.992V367.62h272.996v12.914h-5.94c-8.13 0-14.738 6.61-14.738 14.738v18.766H106.738c-4.137 0-7.492 3.355-7.492 7.492s3.355 7.492 7.492 7.492h72.047v26.875H156.16c-15.094 0-27.37 12.28-27.37 27.37v16.188c0 6.887 5.602 12.488 12.488 12.488h228.875c6.887 0 12.488-5.602 12.488-12.488V483.27c0-15.1-12.277-27.37-27.37-27.37h-22.625v-9.473h138.527c8.125 0 14.734-6.61 14.734-14.738v-3.527c14.605-3.39 25.523-16.496 25.523-32.113l.566-362.57C512 15.293 497.207.5 479.023.5zm-196.73 349.28v-35.918h188.63v35.918zm20.676-50.906V283.11h147.273v15.766zm147.273 65.89v15.77H302.97v-15.77zM193.77 429.023h73.535v2.668c0 8.125 6.61 14.734 14.738 14.734h35.617v9.473H193.77zm161.504 41.863a12.4 12.4 0 0 1 12.383 12.383v13.69H143.773v-13.69c0-6.828 5.56-12.383 12.387-12.383zm115.648-39.45h-188.63v-35.914h188.63zm25.523-35.39c0 7.258-4.328 13.512-10.535 16.352v-17.13c0-8.125-6.613-14.734-14.738-14.734h-5.94V367.62h31.215zm0-43.4h-10.78c.152-.848.246-39.023.246-39.023 0-8.13-6.613-14.738-14.738-14.738h-5.94V283.11h5.94c8.125 0 14.738-6.613 14.738-14.738v-36.418c0-8.125-6.613-14.738-14.738-14.738h-42.324c-4.14 0-7.492 3.355-7.492 7.496s3.352 7.492 7.492 7.492h42.074v35.918h-188.63v-35.918h99.93c4.14 0 7.492-3.355 7.492-7.492s-3.352-7.496-7.492-7.496h-100.18c-8.13 0-14.738 6.613-14.738 14.738v36.418c0 8.125 6.61 14.738 14.738 14.738h5.94v15.766h-5.94c-8.13 0-14.738 6.613-14.738 14.738l.246 39.023H14.988V102.43h481.457zm0-265.195H15.54V33.477c0-9.918 8.07-17.988 17.992-17.988h444.922c9.922 0 17.992 8.07 17.992 17.992zm0 0"/><use xlink:href="#B"/><path d="M111.25 29.262c-12.125 0-21.992 9.863-21.992 21.988s9.867 21.992 21.992 21.992 21.988-9.867 21.988-21.992-9.867-21.988-21.988-21.988zm0 28.992a7.01 7.01 0 0 1-7.004-7.004c0-3.86 3.14-7.004 7.004-7.004a7.02 7.02 0 0 1 7.004 7.004c0 3.863-3.145 7.004-7.004 7.004zm0 0"/><use xlink:href="#B" x="111.972"/><defs ><path id="B" d="M55.262 29.262c-12.125 0-21.988 9.863-21.988 21.988s9.863 21.992 21.988 21.992 21.992-9.867 21.992-21.992-9.867-21.988-21.992-21.988zm0 28.992c-3.86 0-7.004-3.14-7.004-7.004a7.02 7.02 0 0 1 7.004-7.004c3.863 0 7.004 3.145 7.004 7.004a7.01 7.01 0 0 1-7.004 7.004zm0 0"/></defs></svg>