<svg xmlns="http://www.w3.org/2000/svg" viewBox="0 0 306 344.4"><path d="M302.1 86.1L108.9 197.7c8.8 15.2 25.3 25.5 44.1 25.5 18.2 0 35.1-9.8 44.2-25.5l44.1 25.5c-18.2 31.4-52 51-88.3 51-37.7 0-70.7-20.5-88.3-51L3.9 258.3c2.4 4.2 5.7 7.8 9.4 9.9l126.5 73c7.3 4.2 19.2 4.2 26.5 0l126.5-73c3.6-2.1 7-5.7 9.4-9.9s3.9-8.8 3.9-13.1V99.1c-.1-4.2-1.6-8.9-4-13zM255 177.8h-11.3v11.3h-11.3v-11.3H221v-11.3h11.3v-11.3h11.3v11.3H255v11.3zm42.5 0h-11.3v11.3h-11.3v-11.3h-11.3v-11.3h11.3v-11.3h11.3v11.3h11.3v11.3zM64.7 223.2c-8.7-15-13.7-32.4-13.7-51 0-56.2 45.8-102 102-102 36.3 0 70.1 19.5 88.3 51l-25.8 14.9 86.6-50c-2.4-4.2-5.7-7.8-9.4-9.9l-126.5-73C158.9-1 147-1 139.7 3.2l-126.5 73C6 80.4 0 90.7 0 99.1v146.1c0 4.2 1.5 8.9 3.9 13.1l60.8-35.1zm37.3-51c0 9.3 2.5 18 6.9 25.5l88.3-51c-9.1-15.7-26-25.5-44.2-25.5-28.1 0-51 22.9-51 51z" fill="#fff"/></svg>