<svg xmlns="http://www.w3.org/2000/svg" viewBox="0 0 64 64"><path d="M32 0A31.97 31.97 0 0 0 0 32a31.97 31.97 0 0 0 32 32 31.97 31.97 0 0 0 32-32A31.97 31.97 0 0 0 32 0zM8.4 40.8c-.3.3-.6.4-1 .4s-.7-.1-1-.4-.4-.6-.4-1 .1-.7.4-1 .6-.4 1-.4.7.2 1 .4c.3.3.4.6.4 1s-.1.8-.4 1zm18.9.2h-2.6l-9.4-14.5-.6-1.1h-.1c.1.8.1 1.7.1 2.5V41h-2.1V22.8h2.8L24.5 37a10.38 10.38 0 0 1 .7 1.2h.1c-.1-.9-.1-1.8-.1-2.7V22.8h2.1V41zm14.4 0H32V22.8h9.2v1.9h-7.1v6.1h6.6v1.9h-6.6V39h7.5l.1 2zm9-16.3V41h-2.1V24.7h-5.2v-1.9H56v1.9h-5.3z" fill="#fff"/></svg>