<svg xmlns="http://www.w3.org/2000/svg" viewBox="0 0 400 400" fill="#fff"><path d="M43.068 294.355l160.15-277.38 14.376 8.3-160.15 277.38z"/><path d="M39.8 272.2h320.3v16.6H39.8z"/><path d="M46.144 281.525l8.3-14.376 160.2 92.5-8.3 14.376zM185.316 40.418l8.3-14.376 160.2 92.5-8.3 14.376z"/><path d="M46.124 118.487l160.2-92.5 8.3 14.376-160.2 92.5z"/><path d="M182.44 25.297l14.376-8.3 160.15 277.38-14.376 8.3zM52.5 107.5h16.6v185H52.5z"/><path d="M330.9 107.5h16.6v185h-16.6z"/><path d="M196.226 354.408l139.34-80.45 7.25 12.557-139.34 80.45z"/><path d="M369.5 297.9c-9.6 16.7-31 22.4-47.7 12.8s-22.4-31-12.8-47.7 31-22.4 47.7-12.8c16.8 9.7 22.5 31 12.8 47.7M90.9 137c-9.6 16.7-31 22.4-47.7 12.8s-22.4-31-12.8-47.7 31-22.4 47.7-12.8c16.7 9.7 22.4 31 12.8 47.7M30.5 297.9c-9.6-16.7-3.9-38 12.8-47.7 16.7-9.6 38-3.9 47.7 12.8 9.6 16.7 3.9 38-12.8 47.7-16.8 9.6-38.1 3.9-47.7-12.8M309.1 137c-9.6-16.7-3.9-38 12.8-47.7 16.7-9.6 38-3.9 47.7 12.8 9.6 16.7 3.9 38-12.8 47.7-16.7 9.6-38.1 3.9-47.7-12.8M200 395.8c-19.3 0-34.9-15.6-34.9-34.9S180.7 326 200 326s34.9 15.6 34.9 34.9c0 19.2-15.6 34.9-34.9 34.9M200 74c-19.3 0-34.9-15.6-34.9-34.9S180.7 4.2 200 4.2s34.9 15.6 34.9 34.9S219.3 74 200 74"/></svg>