<svg xmlns="http://www.w3.org/2000/svg" viewBox="0 0 240 234"><path d="M174.2 82.2h-15.7c-.9 0-1.2.4-1.2 1.2h.1v78.8c0 .8.3 1.3 1.3 1.3h15.5c1 0 1.2-.4 1.2-1.2V83.4c0-.9-.4-1.2-1.2-1.2zm-8.1-11.3c6.1 0 10.4-3.6 10.4-10.2 0-6.1-4.1-10.2-10.2-10.2-5.7 0-10.2 3.8-10.2 10.2 0 6.6 4.2 10.2 10 10.2zM59.2 163.5h14.7c1 0 1.3-.2 1.5-1l7.9-30h31.9l8.3 30.1c.2.7.7.9 1.5.9h16.6c.8 0 1-.5.8-1.3L110.6 54.3c-.2-.8-.5-1-1.2-1h-21c-.5 0-.8.3-.8 1-.2 4.9-.5 6.5-1 8.3L58.2 162c-.2 1.2 0 1.5 1 1.5zM99 69.3h.2c2.5 11.7 9.1 35.9 11.9 47H87.4c4.2-15.5 9.5-35.3 11.6-47zM0 0v234h240V0H0zm230 224H10V10h220v214z" fill="#fff"/></svg>