<?xml version="1.0" encoding="utf-8"?>
<!-- Generator: Adobe Illustrator 23.0.1, SVG Export Plug-In . SVG Version: 6.00 Build 0)  -->
<svg version="1.1" id="Capa_1" xmlns="http://www.w3.org/2000/svg" xmlns:xlink="http://www.w3.org/1999/xlink" x="0px" y="0px"
	 viewBox="0 0 240 234" style="enable-background:new 0 0 240 234;" xml:space="preserve">
<style type="text/css">
	.st0{fill:#FFFFFF;}
</style>
<g>
	<g>
		<path class="st0" d="M174.2,82.2h-15.7c-0.9,0-1.2,0.4-1.2,1.2h0.1v78.8c0,0.8,0.3,1.3,1.3,1.3h15.5c1,0,1.2-0.4,1.2-1.2V83.4
			C175.4,82.5,175,82.2,174.2,82.2z M166.1,70.9c6.1,0,10.4-3.6,10.4-10.2c0-6.1-4.1-10.2-10.2-10.2c-5.7,0-10.2,3.8-10.2,10.2
			C156.1,67.3,160.3,70.9,166.1,70.9z M59.2,163.5h14.7c1,0,1.3-0.2,1.5-1l7.9-30h31.9l8.3,30.1c0.2,0.7,0.7,0.9,1.5,0.9h16.6
			c0.8,0,1-0.5,0.8-1.3L110.6,54.3c-0.2-0.8-0.5-1-1.2-1h-21c-0.5,0-0.8,0.3-0.8,1c-0.2,4.9-0.5,6.5-1,8.3L58.2,162
			C58,163.2,58.2,163.5,59.2,163.5z M99,69.3h0.2c2.5,11.7,9.1,35.9,11.9,47H87.4C91.6,100.8,96.9,81,99,69.3z M0,0v234h240V0H0z
			 M230,224H10V10h220V224z"/>
	</g>
</g>
</svg>
