<svg id="Layer_1" data-name="Layer 1" xmlns="http://www.w3.org/2000/svg" viewBox="0 0 36 40"><defs><style>.cls-1{fill:#fff;}</style></defs><title>mongodb</title><path class="cls-1" d="M18,3A49.68,49.68,0,0,1,30.5,4.8a3,3,0,0,1,2.2,2.6,56.83,56.83,0,0,1,.3,5.9A24.89,24.89,0,0,1,18,36.7,25.15,25.15,0,0,1,3,13.3a56.83,56.83,0,0,1,.3-5.9A2.88,2.88,0,0,1,5.5,4.8,49.68,49.68,0,0,1,18,3m0-3A50.93,50.93,0,0,0,4.7,1.9,5.88,5.88,0,0,0,.4,7,54.14,54.14,0,0,0,0,13.3C0,33.8,18,40,18,40s18-6.2,18-26.7A52.66,52.66,0,0,0,35.6,7a5.87,5.87,0,0,0-4.4-5.1A49.45,49.45,0,0,0,18,0Z"/><rect class="cls-1" x="17" y="24" width="2" height="8"/><path class="cls-1" d="M18,6s-6,5-6,13c0,5.2,3.3,8.5,5,10l1-3,1,3c1.7-1.5,5-4.8,5-10C24,11,18,6,18,6Z"/><path class="cls-1" d="M18,6s-6,5-6,13c0,5.2,3.3,8.5,5,10l1-3Z"/></svg>