<svg xmlns="http://www.w3.org/2000/svg" viewBox="0 0 36 40" fill="#fff"><path d="M18 3a49.68 49.68 0 0 1 12.5 1.8 3 3 0 0 1 2.2 2.6 56.83 56.83 0 0 1 .3 5.9 24.89 24.89 0 0 1-15 23.4A25.15 25.15 0 0 1 3 13.3a56.83 56.83 0 0 1 .3-5.9 2.88 2.88 0 0 1 2.2-2.6A49.68 49.68 0 0 1 18 3m0-3A50.93 50.93 0 0 0 4.7 1.9 5.88 5.88 0 0 0 .4 7a54.14 54.14 0 0 0-.4 6.3C0 33.8 18 40 18 40s18-6.2 18-26.7a52.66 52.66 0 0 0-.4-6.3 5.87 5.87 0 0 0-4.4-5.1A49.45 49.45 0 0 0 18 0zm-1 24h2v8h-2z"/><path d="M18 6s-6 5-6 13c0 5.2 3.3 8.5 5 10l1-3 1 3c1.7-1.5 5-4.8 5-10 0-8-6-13-6-13z"/><path d="M18,6s-6,5-6,13c0,5.2,3.3,8.5,5,10l1-3Z"/></svg>