<svg id="Layer_1" data-name="Layer 1" xmlns="http://www.w3.org/2000/svg" viewBox="0 0 155.1 80.1"><defs><style>.cls-1,.cls-2{fill:#fff;}.cls-2{fill-rule:evenodd;}</style></defs><title>mysql</title><path class="cls-1" d="M0,73H5.11V52.78L13,70.37c.93,2.13,2.21,2.88,4.72,2.88s3.73-.75,4.67-2.88l7.91-17.59V73h5.11V52.81A3.07,3.07,0,0,0,33,49.41c-3.88-1.22-6.49-.17-7.67,2.45L17.59,69.22,10.07,51.86c-1.13-2.62-3.78-3.67-7.66-2.45A3.07,3.07,0,0,0,0,52.81Z"/><path class="cls-1" d="M39.67,56.53h5.11V67.65c-.05.6.2,2,3,2.07,1.42,0,11,0,11.11,0V56.48H64s0,18.05,0,18.13c0,4.45-5.52,5.42-8.08,5.49H39.79V76.66s16.12,0,16.16,0c3.29-.35,2.9-2,2.9-2.53V72.79H48c-5.06-.05-8.27-2.25-8.31-4.79C39.67,67.77,39.79,56.64,39.67,56.53Z"/><path class="cls-1" d="M68,73H82.64a11.16,11.16,0,0,0,4.71-1c2.21-1,3.3-2.39,3.3-4.19V64.05c0-1.48-1.23-2.85-3.64-3.77a12.61,12.61,0,0,0-4.37-.75H76.45c-2.07,0-3-.62-3.3-2a1.44,1.44,0,0,1-.05-.46V54.75a1.33,1.33,0,0,1,.05-.43c.25-1,.79-1.34,2.61-1.51l.49,0H90.84V49.37H76.49a13.52,13.52,0,0,0-4.12.43c-3.05,1-4.38,2.46-4.38,5.08v3c0,2.29,2.61,4.26,7,4.71.49,0,1,.07,1.48.07h5.3a2.92,2.92,0,0,1,.54,0c1.62.13,2.31.43,2.8,1a1.2,1.2,0,0,1,.4.91v3a1.73,1.73,0,0,1-.74,1.21,3.67,3.67,0,0,1-2.16.72c-.2,0-.35,0-.54,0H68Z"/><path class="cls-1" d="M122.52,67c0,3.5,2.61,5.47,7.86,5.86.49,0,1,.07,1.48.07h13.31V69.55H131.76c-3,0-4.13-.75-4.13-2.55V49.37h-5.11Z"/><path class="cls-1" d="M93.91,67.21V55.06c0-3.08,2.16-5,6.45-5.55a10.51,10.51,0,0,1,1.37-.09h9.7a11.32,11.32,0,0,1,1.43.09c4.29.6,6.45,2.47,6.45,5.55V67.21c0,2.5-.92,3.84-3,4.71l5,4.55h-5.94l-4.07-3.68-4.1.26h-5.47a11.19,11.19,0,0,1-3-.43C95.48,71.74,93.91,70,93.91,67.21Zm5.51-.3a2.23,2.23,0,0,0,.1.53c.3,1.41,1.62,2.2,3.64,2.2h4.65l-4.27-3.85h5.93l3.72,3.35a2.4,2.4,0,0,0,1.3-1.64,1.63,1.63,0,0,0,.05-.49V55.36a1.54,1.54,0,0,0-.05-.46c-.3-1.31-1.63-2.07-3.6-2.07h-7.73c-2.26,0-3.74,1-3.74,2.53Z"/><path class="cls-1" d="M149.67,43.72a18.14,18.14,0,0,0-7.59,1.07c-.59.25-1.52.26-1.61,1,.32.33.37.83.62,1.25a9.93,9.93,0,0,0,2.06,2.41,29.06,29.06,0,0,0,2.5,1.78c1.54.94,3.25,1.48,4.73,2.42.88.55,1.74,1.25,2.59,1.87.42.31.71.79,1.25,1v-.08c-.28-.37-.36-.87-.62-1.26L152.44,54a19.4,19.4,0,0,0-4.11-3.93c-1.22-.87-4-2.06-4.47-3.48l-.09-.09a20.54,20.54,0,0,0,2.68-.62c1.35-.36,2.55-.27,3.93-.63l1.88-.54v-.35c-.7-.72-1.2-1.67-2-2.32a56.5,56.5,0,0,0-6.43-4.83c-1.24-.78-2.78-1.3-4.11-2-.44-.23-1.22-.34-1.51-.72a17.84,17.84,0,0,1-1.61-3c-1.12-2.16-2.22-4.52-3.22-6.79a36.14,36.14,0,0,0-2-4.47C127.39,13.56,123,9.54,116.27,5.58a18.18,18.18,0,0,0-5-1.6l-2.94-.18a16,16,0,0,1-1.79-1.34C104.29,1,98.54-2,96.88,2c-1,2.56,1.57,5.05,2.5,6.34a19.19,19.19,0,0,1,2,3c.31.67.36,1.34.62,2A46.86,46.86,0,0,0,104,18.62,18.32,18.32,0,0,0,105.46,21c.33.44.89.64,1,1.34a11,11,0,0,0-.89,2.94c-1.4,4.4-.87,9.88,1.16,13.13.62,1,2.09,3.15,4.11,2.32,1.76-.71,1.37-2.94,1.87-4.91.12-.44,0-.77.27-1.07v.09l1.61,3.21a22,22,0,0,0,5.09,5.28c.93.7,1.66,1.91,2.86,2.32V45.6h-.09c-.23-.36-.6-.51-.9-.81a20.61,20.61,0,0,1-2-2.32,54.51,54.51,0,0,1-4.38-7.14c-.62-1.21-1.17-2.53-1.69-3.75-.21-.48-.2-1.19-.63-1.43a16.82,16.82,0,0,0-1.87,2.68,22.87,22.87,0,0,0-1.08,5.89c-.15.06-.08,0-.17.09-1.25-.3-1.69-1.58-2.15-2.68a17,17,0,0,1-.36-10.45c.27-.83,1.47-3.43,1-4.2-.24-.76-1-1.2-1.43-1.78a14.06,14.06,0,0,1-1.43-2.51c-1-2.16-1.4-4.59-2.41-6.78a19.51,19.51,0,0,0-2-3,17.39,17.39,0,0,1-2.14-3c-.2-.44-.48-1.15-.18-1.6a.71.71,0,0,1,.54-.54c.51-.4,2,.13,2.5.36a22,22,0,0,1,3.84,2c.58.39,1.17,1.14,1.87,1.34h.81c1.25.29,2.66.09,3.84.45A23.14,23.14,0,0,1,117.6,9a34.84,34.84,0,0,1,12.24,13.4c.46.88.66,1.73,1.07,2.68.83,1.9,1.86,3.85,2.68,5.71A26.87,26.87,0,0,0,136.36,36c.61.81,2.95,1.25,4,1.7a22,22,0,0,1,2.68,1.07c1.35.82,2.66,1.79,3.93,2.68.63.45,2.58,1.43,2.68,2.23Z"/><path class="cls-2" d="M109.75,9.69a6.33,6.33,0,0,0-1.61.18V10h.09a11.72,11.72,0,0,0,1.25,1.61c.29.62.59,1.25.89,1.87l.09-.09a2.16,2.16,0,0,0,.8-2c-.22-.23-.25-.53-.44-.8S110.07,10,109.75,9.69Z"/><path class="cls-2" d="M147.57,69.45a3.77,3.77,0,1,0,3.77-3.76A3.72,3.72,0,0,0,147.57,69.45Zm6.69,0a2.92,2.92,0,1,1-2.92-3A2.92,2.92,0,0,1,154.26,69.45Zm-1.91,2.15h.85L152,69.72a1.12,1.12,0,0,0,1.16-1.18c0-.87-.55-1.23-1.61-1.23h-1.68V71.6h.72V69.75h.68Zm-1.8-2.46V67.91h.84c.43,0,1,.08,1,.58s-.47.65-1,.65Z"/></svg>