<svg xmlns="http://www.w3.org/2000/svg" viewBox="0 0 155.1 80.1" fill="#fff"><path d="M0 73h5.1V52.78l7.9 17.6c.93 2.13 2.2 2.88 4.72 2.88s3.73-.75 4.67-2.88l7.9-17.6V73h5.1V52.8a3.07 3.07 0 0 0-2.41-3.4c-3.88-1.22-6.5-.17-7.67 2.45l-7.7 17.37-7.52-17.36C8.94 49.24 6.3 48.2 2.4 49.4A3.07 3.07 0 0 0 0 52.81zm39.67-16.47h5.1v11.12c-.05.6.2 2 3 2.07h11.1V56.48H64V74.6c0 4.45-5.52 5.42-8.08 5.5H39.8v-3.44h16.16c3.3-.35 2.9-2 2.9-2.53V72.8H48c-5.06-.05-8.27-2.25-8.3-4.8-.02-.23.1-11.36-.02-11.47zM68 73h14.64a11.16 11.16 0 0 0 4.71-1c2.2-1 3.3-2.4 3.3-4.2v-3.76c0-1.48-1.23-2.85-3.64-3.77a12.61 12.61 0 0 0-4.37-.75h-6.2c-2.07 0-3-.62-3.3-2a1.44 1.44 0 0 1-.05-.46v-2.32a1.33 1.33 0 0 1 .05-.43c.25-1 .8-1.34 2.6-1.5h15.08v-3.44H76.5a13.52 13.52 0 0 0-4.12.43c-3.05 1-4.38 2.46-4.38 5.08v3c0 2.3 2.6 4.26 7 4.7l1.48.07h5.3a2.92 2.92 0 0 1 .54 0c1.62.13 2.3.43 2.8 1a1.2 1.2 0 0 1 .4.91v3a1.73 1.73 0 0 1-.74 1.21 3.67 3.67 0 0 1-2.16.72H68zm54.52-6c0 3.5 2.6 5.47 7.86 5.86l1.48.07h13.3v-3.38h-13.4c-3 0-4.13-.75-4.13-2.55V49.37h-5.1zm-28.62.2V55.06c0-3.08 2.16-5 6.45-5.55a10.51 10.51 0 0 1 1.37-.09h9.7a11.32 11.32 0 0 1 1.43.09c4.3.6 6.45 2.47 6.45 5.55V67.2c0 2.5-.92 3.84-3 4.7l5 4.55h-5.94l-4.07-3.68-4.1.26h-5.47a11.19 11.19 0 0 1-3-.43c-3.25-.88-4.82-2.62-4.82-5.4zm5.5-.3a2.23 2.23 0 0 0 .1.53c.3 1.4 1.62 2.2 3.64 2.2h4.65l-4.27-3.85h5.93l3.72 3.35a2.4 2.4 0 0 0 1.3-1.64 1.63 1.63 0 0 0 .05-.49V55.36a1.54 1.54 0 0 0-.05-.46c-.3-1.3-1.63-2.07-3.6-2.07h-7.73c-2.26 0-3.74 1-3.74 2.53zm50.27-23.18a18.14 18.14 0 0 0-7.59 1.07c-.6.25-1.52.26-1.6 1 .32.33.37.83.62 1.25a9.93 9.93 0 0 0 2.06 2.41 29.06 29.06 0 0 0 2.5 1.78c1.54.94 3.25 1.48 4.73 2.42.88.55 1.74 1.25 2.6 1.87.42.3.7.8 1.25 1v-.08c-.28-.37-.36-.87-.62-1.26L152.44 54a19.4 19.4 0 0 0-4.11-3.93c-1.22-.87-4-2.06-4.47-3.48l-.1-.1a20.54 20.54 0 0 0 2.68-.62c1.35-.36 2.55-.27 3.93-.63l1.88-.54v-.35c-.7-.72-1.2-1.67-2-2.32a56.5 56.5 0 0 0-6.43-4.83c-1.24-.78-2.78-1.3-4.1-2-.44-.23-1.22-.34-1.5-.72a17.84 17.84 0 0 1-1.61-3l-3.22-6.8a36.14 36.14 0 0 0-2-4.47c-4-6.67-8.38-10.7-15.1-14.65a18.18 18.18 0 0 0-5-1.6l-2.94-.18a16 16 0 0 1-1.79-1.34C104.3 1 98.54-2 96.88 2c-1 2.56 1.57 5.05 2.5 6.34a19.19 19.19 0 0 1 2 3c.3.67.36 1.34.62 2a46.86 46.86 0 0 0 2 5.28 18.32 18.32 0 0 0 1.46 2.38c.33.44.9.64 1 1.34a11 11 0 0 0-.89 2.94c-1.4 4.4-.87 9.88 1.16 13.13.62 1 2.1 3.15 4.1 2.32 1.76-.7 1.37-2.94 1.87-4.9.12-.44 0-.77.27-1.07v.1l1.6 3.2a22 22 0 0 0 5.09 5.28c.93.7 1.66 1.9 2.86 2.32v-.05h-.1c-.23-.36-.6-.5-.9-.8a20.61 20.61 0 0 1-2-2.32 54.51 54.51 0 0 1-4.38-7.14c-.62-1.2-1.17-2.53-1.7-3.75-.2-.48-.2-1.2-.63-1.43a16.82 16.82 0 0 0-1.87 2.68 22.87 22.87 0 0 0-1.08 5.89c-.15.06-.08 0-.17.1-1.25-.3-1.7-1.58-2.15-2.68a17 17 0 0 1-.36-10.45c.27-.83 1.47-3.43 1-4.2-.24-.76-1-1.2-1.43-1.78a14.06 14.06 0 0 1-1.43-2.51c-1-2.16-1.4-4.6-2.4-6.78a19.51 19.51 0 0 0-2-3 17.39 17.39 0 0 1-2.14-3c-.2-.44-.48-1.15-.18-1.6a.71.71 0 0 1 .54-.54c.5-.4 2 .13 2.5.36a22 22 0 0 1 3.84 2c.58.4 1.17 1.14 1.87 1.34h.8c1.25.3 2.66.1 3.84.45A23.14 23.14 0 0 1 117.6 9a34.84 34.84 0 0 1 12.24 13.4c.46.88.66 1.73 1.07 2.68.83 1.9 1.86 3.85 2.68 5.7a26.87 26.87 0 0 0 2.77 5.21c.6.8 2.95 1.25 4 1.7a22 22 0 0 1 2.68 1.07c1.35.82 2.66 1.8 3.93 2.68.63.45 2.58 1.43 2.68 2.23z"/><path d="M109.75 9.7a6.33 6.33 0 0 0-1.61.18V10h.1a11.72 11.72 0 0 0 1.25 1.61l.9 1.87.1-.1a2.16 2.16 0 0 0 .8-2c-.22-.23-.25-.53-.44-.8s-.75-.6-1.07-.9zm37.82 59.75a3.77 3.77 0 1 0 3.77-3.76 3.72 3.72 0 0 0-3.77 3.76zm6.7 0a2.92 2.92 0 1 1-2.92-3 2.92 2.92 0 0 1 2.92 3zm-1.9 2.15h.85l-1.2-1.88a1.12 1.12 0 0 0 1.16-1.18c0-.87-.55-1.23-1.6-1.23h-1.68v4.3h.72v-1.85h.68zm-1.8-2.46V67.9h.84c.43 0 1 .08 1 .58s-.47.65-1 .65z" fill-rule="evenodd"/></svg>