<svg xmlns="http://www.w3.org/2000/svg" viewBox="0 0 240 234"><path d="M135 160.8c4.3 2.5 11.8 4.3 20.5 4.3 16.5 0 28.7-8.6 28.7-24.6 0-10.7-4.9-18-20.6-25.6-10.6-5.5-12.4-8-12.4-11.6 0-3.3 2.7-7.3 10.6-7.3 6.5 0 13 1.7 17.4 4.5 1 .3 1.5-.2 1.5-1V85.8c0-.7-.2-1.5-1-2-3.3-1.5-9.3-2.8-17.9-2.8-17.5 0-27.6 10.7-27.6 23.6 0 11.5 5.9 18.4 20.1 25.2 10.1 5.2 12.4 8.4 12.4 12 0 4.5-3.3 7.8-11.2 7.8-6.6 0-13.8-1.8-20.1-5.9-.7-.5-1.2-.2-1.2.8v14.7c0 .8.1 1.3.8 1.6zm-75.8 2.7h15.3c.9 0 1.2-.4 1.2-1.2v-38.4c2.7 0 4 .2 7.8.2 22.6 0 41-10.9 41-36.3 0-19.5-10.8-34.7-38.5-34.7-9.9 0-19.4.2-25.8.5-.8 0-2.2.5-2.2 1.2v107.5c0 .9.4 1.2 1.2 1.2zm16.6-94.2c1.8-.1 5.6-.3 9.6-.3 13.3 0 21.2 6.4 21.2 19.1 0 15.9-11 20-22.7 20-4 0-5.8 0-8.1-.2V69.3zM0 0v234h240V0H0zm230 224H10V10h220v214z" fill="#fff"/></svg>