<?xml version="1.0" standalone="no"?>
<!DOCTYPE svg PUBLIC "-//W3C//DTD SVG 20010904//EN"
 "http://www.w3.org/TR/2001/REC-SVG-20010904/DTD/svg10.dtd">
<svg version="1.0" xmlns="http://www.w3.org/2000/svg"
 width="1700.000000pt" height="1700.000000pt" viewBox="0 0 1700.000000 1700.000000"
 preserveAspectRatio="xMidYMid meet">
<metadata>
Created by potrace 1.11, written by Peter Selinger 2001-2013
</metadata>
<g transform="translate(0.000000,1700.000000) scale(0.100000,-0.100000)"
fill="#000000" stroke="none">
<path d="M10595 15604 c-81 -20 -131 -66 -919 -846 -199 -197 -407 -404 -463
-460 -56 -57 -106 -107 -112 -113 -6 -5 -205 -205 -443 -443 -666 -668 -1179
-1179 -1335 -1333 -79 -77 -143 -144 -143 -149 0 -6 -4 -10 -8 -10 -5 0 -86
-77 -181 -171 l-172 -172 -31 29 c-17 16 -45 44 -61 62 -32 36 -73 59 -97 57
-8 -1 -23 -3 -32 -3 -10 -1 -32 -21 -48 -44 -30 -41 -31 -47 -20 -115 0 -2 29
-31 65 -66 36 -35 65 -67 65 -72 0 -12 -253 -265 -265 -265 -6 0 -61 51 -122
113 -223 224 -262 255 -359 282 -94 25 -95 25 -184 26 -89 0 -107 -2 -152 -20
-16 -6 -28 -8 -28 -5 0 4 -11 -1 -25 -10 -14 -9 -25 -14 -25 -11 0 3 -23 -10
-51 -29 -55 -37 -389 -360 -389 -377 0 -5 -5 -9 -11 -9 -6 0 -27 -16 -47 -35
-42 -40 -47 -41 -56 -19 -4 12 10 32 49 68 30 28 55 56 55 62 0 6 50 63 111
125 61 63 119 125 129 137 11 13 57 63 102 112 46 48 97 103 113 122 17 19 73
81 125 139 52 57 120 133 150 169 30 35 62 71 70 80 8 9 33 38 55 65 21 28 42
52 45 55 3 3 39 43 80 90 41 47 85 96 98 110 35 38 65 89 68 117 3 30 -49 66
-81 56 -16 -5 -153 -105 -202 -147 -17 -15 -30 -26 -98 -78 -33 -25 -72 -56
-86 -70 -14 -13 -37 -33 -50 -43 -30 -23 -145 -123 -169 -146 -9 -8 -25 -22
-37 -30 -18 -13 -142 -121 -182 -159 -9 -9 -54 -49 -100 -90 -47 -41 -122
-111 -167 -155 -215 -211 -199 -198 -222 -184 -19 12 -26 8 -74 -39 -58 -57
-74 -62 -106 -32 -31 29 -72 21 -121 -22 -41 -38 -51 -58 -30 -58 6 0 9 -9 6
-20 -3 -12 4 -30 19 -47 l24 -28 -61 -61 c-55 -56 -59 -62 -50 -87 10 -25 5
-33 -77 -120 -49 -50 -113 -119 -143 -151 -30 -33 -70 -76 -89 -96 -19 -21
-69 -75 -110 -121 -41 -45 -96 -106 -122 -134 l-47 -51 -446 1 c-245 1 -448
-2 -450 -5 -2 -4 -6 -17 -9 -31 -3 -13 -18 -71 -34 -129 l-28 -105 2 -1035 c1
-569 2 -1037 3 -1040 0 -3 98 -5 216 -5 118 0 215 -1 215 -2 0 -4 -27 -30 -77
-75 -23 -20 -39 -38 -37 -41 3 -2 -12 -17 -33 -33 -56 -42 -183 -169 -183
-182 0 -7 -5 -12 -11 -12 -10 0 -566 -549 -1089 -1075 -834 -838 -1207 -1215
-1235 -1250 -76 -92 -85 -176 -35 -316 77 -215 159 -321 411 -531 152 -127
363 -258 440 -273 9 -2 79 -34 155 -72 77 -37 141 -68 144 -69 3 0 28 -10 55
-22 28 -12 59 -26 70 -30 14 -7 25 -2 41 15 30 33 40 11 11 -23 -18 -21 -28
-25 -43 -19 -10 4 -23 9 -29 10 -5 2 -30 11 -55 22 -25 11 -58 26 -75 33 -16
8 -33 13 -37 12 -5 -1 -8 3 -8 8 0 6 -7 10 -15 10 -8 0 -63 23 -123 50 -60 28
-112 50 -116 50 -7 0 -190 -175 -250 -238 -50 -54 -57 -70 -57 -137 -1 -52 2
-64 29 -109 24 -41 594 -608 640 -638 15 -9 50 -18 77 -20 98 -4 111 5 355
252 124 126 236 247 250 270 27 46 139 190 173 224 12 11 54 48 92 81 39 33
71 63 73 67 2 5 12 3 23 -2 10 -6 19 -8 19 -4 0 4 8 0 18 -8 45 -40 56 -35
124 65 34 52 94 127 131 168 l69 73 51 -28 c29 -15 99 -53 157 -83 58 -31 110
-59 115 -63 6 -4 36 -17 68 -30 31 -12 61 -28 65 -35 4 -7 38 -45 75 -84 62
-65 70 -70 90 -60 22 12 47 34 47 42 0 2 -32 36 -72 75 -68 68 -71 73 -58 96
30 57 208 245 285 301 22 17 42 33 45 36 3 3 24 19 47 36 24 17 68 63 99 103
85 110 129 156 209 215 22 17 46 36 54 43 8 8 38 32 68 54 29 22 73 68 96 102
49 70 66 91 123 152 49 53 34 66 169 -144 l98 -152 137 0 136 0 -1 -110 c-1
-60 1 -114 4 -119 4 -6 144 -9 376 -8 l369 2 22 73 c12 39 20 72 17 72 -3 0 0
7 7 15 7 8 10 15 7 15 -3 0 -1 13 4 30 l11 30 1904 0 1904 0 1 -62 c0 -35 2
-139 4 -233 6 -236 14 -661 19 -970 9 -505 21 -1028 25 -1079 1 -5 113 -120
251 -256 225 -222 268 -270 242 -270 -8 0 -269 260 -410 407 -55 58 -60 61
-74 45 -15 -18 -16 -49 -4 -417 4 -104 8 -253 11 -331 5 -202 17 -254 82 -366
52 -90 150 -176 258 -228 98 -47 187 -64 308 -57 131 7 222 40 317 116 80 65
660 648 660 665 0 9 8 16 18 16 9 0 119 100 243 223 223 218 293 302 305 367
4 16 10 30 15 30 19 0 25 206 19 606 -2 78 0 147 4 152 4 6 13 9 21 5 19 -7
52 15 108 72 25 25 48 45 52 45 5 0 126 -118 269 -263 251 -252 354 -350 516
-488 41 -35 93 -81 115 -102 22 -20 43 -37 47 -37 3 0 20 -14 37 -30 25 -25
34 -29 50 -21 20 11 71 68 71 79 0 9 -138 169 -313 364 -106 117 -508 521
-592 595 l-59 51 66 65 c36 36 70 78 75 94 l10 28 336 -3 c336 -2 388 2 478
36 66 26 164 114 563 507 430 424 648 653 702 735 16 25 32 47 37 48 4 2 7 8
7 14 0 6 12 36 26 66 46 97 60 220 39 342 -4 25 -8 50 -9 57 -6 34 -86 171
-125 216 -73 80 -190 145 -291 161 -19 3 -46 8 -60 11 -64 13 -144 16 -770 30
-85 2 -158 1 -162 -1 -13 -8 11 -44 65 -101 82 -87 48 -69 -44 23 l-86 84
-179 5 c-98 3 -224 7 -279 9 -77 4 -435 16 -547 20 -12 0 -18 9 -19 26 0 14
-1 130 -1 258 0 186 -3 235 -14 239 -11 4 -11 10 0 37 10 24 13 113 14 373 l0
342 -431 1 c-238 1 -467 2 -510 2 -43 0 -82 -3 -86 -8 -4 -5 -55 -81 -113
-169 -57 -88 -135 -206 -172 -262 -37 -57 -68 -103 -69 -103 -1 0 -2 120 -2
268 l0 267 -115 2 c-63 1 -343 3 -622 4 l-508 2 -72 85 c-40 46 -78 90 -84 96
-5 6 -61 72 -123 146 -61 74 -129 155 -149 179 -20 24 -46 55 -57 69 -11 14
-40 49 -65 78 -25 28 -52 61 -60 72 -9 12 -29 36 -46 54 -16 18 -33 38 -37 45
-5 8 174 11 721 11 l727 1 0 -117 -1 -117 220 -5 c122 -3 291 -4 377 -2 l155
3 18 69 c10 38 18 72 18 75 -1 2 5 20 14 40 8 19 11 35 8 35 -4 0 -2 6 3 13 5
6 8 76 8 155 -1 78 2 142 5 142 4 0 18 -12 32 -27 14 -16 80 -81 146 -147
l121 -118 1191 0 c656 1 1194 3 1196 5 4 4 39 123 49 167 2 8 9 31 14 50 7 23
11 308 11 852 l0 818 -232 228 -232 229 -505 -1 -505 -1 -36 -126 c-20 -69
-36 -133 -34 -142 1 -10 -1 -17 -6 -17 -5 0 -73 65 -153 144 l-144 144 -503
-1 -503 -2 -22 -68 c-12 -37 -23 -71 -23 -75 -1 -4 -6 -28 -13 -54 -12 -52
-19 -53 -69 -6 -14 13 -41 35 -62 50 -20 15 -42 33 -50 40 -7 8 -42 36 -78 64
l-65 51 -180 1 c-99 0 -276 1 -393 1 l-213 1 23 38 c65 109 190 233 318 318
101 67 134 102 169 180 5 12 13 23 18 25 4 2 21 23 36 46 31 45 121 133 177
173 19 13 43 32 54 42 10 9 35 25 55 34 33 15 80 59 81 76 0 14 95 146 136
190 57 61 131 121 205 166 50 30 75 55 113 111 78 113 137 181 196 229 30 24
64 51 74 59 11 9 35 25 53 36 l34 20 57 -60 c31 -33 65 -62 75 -66 18 -7 67
28 67 47 0 6 -35 43 -76 81 -70 64 -81 81 -139 200 -35 72 -90 175 -121 229
l-57 99 59 54 c32 30 105 86 162 124 112 76 108 67 78 160 l-14 46 35 44 c80
103 255 247 357 295 43 20 470 444 495 492 33 60 34 127 5 189 -24 49 -61 88
-458 478 -166 163 -200 185 -292 185 -77 0 -94 -12 -282 -202 -76 -76 -97
-104 -100 -130 -2 -18 -6 -35 -8 -38 -8 -7 -24 23 -24 46 0 56 -118 239 -301
466 -54 67 -163 171 -254 242 -132 103 -159 118 -273 146 -87 22 -117 22 -187
4z m-6009 -4604 c-136 -135 -255 -254 -265 -265 -10 -11 -26 -49 -35 -85 -37
-143 -42 -155 -56 -152 -7 2 -41 26 -76 55 l-64 52 53 50 c28 27 88 83 132
125 44 41 151 142 238 225 87 82 169 156 181 165 13 8 43 34 67 57 34 33 46
39 57 30 12 -9 -32 -57 -232 -257z m5177 -577 c-1 -54 -2 -105 -3 -113 0 -8
-18 12 -40 44 -41 63 -41 64 -2 105 7 8 20 24 29 37 8 13 16 24 17 24 1 0 1
-44 -1 -97z m-2622 -2675 c34 -29 92 -77 128 -106 117 -95 301 -250 324 -274
10 -10 21 -18 26 -18 4 0 16 -8 27 -18 30 -28 156 -135 188 -160 16 -12 25
-23 20 -23 -5 -1 -110 -2 -234 -3 l-224 -1 -14 -48 c-7 -26 -16 -47 -20 -47
-4 1 -32 40 -62 88 -73 117 -225 352 -245 380 -15 20 -24 22 -110 22 -52 0
-95 3 -95 6 0 6 40 66 50 74 3 3 14 16 23 30 22 32 138 150 148 150 5 0 36
-24 70 -52z m3646 -1148 c21 0 22 -2 21 -145 0 -142 -1 -144 -22 -141 -11 3
-24 5 -27 5 -4 1 -40 40 -80 89 -41 48 -77 89 -81 92 -13 10 -68 83 -68 91 0
11 41 14 145 12 50 -1 100 -2 112 -3z"/>
</g>
</svg>
