<?xml version="1.0" encoding="utf-8"?>
<!-- Generator: Adobe Illustrator 23.0.1, SVG Export Plug-In . SVG Version: 6.00 Build 0)  -->
<svg version="1.1" id="Capa_1" xmlns="http://www.w3.org/2000/svg" xmlns:xlink="http://www.w3.org/1999/xlink" x="0px" y="0px"
	 viewBox="0 0 512 512" style="enable-background:new 0 0 512 512;" xml:space="preserve">
<g>
	<g>
		<path d="M234.2,477c-4.4,0-8-3.6-8-8s3.6-8,8-8h44.2c4.4,0,8,3.6,8,8s-3.6,8-8,8H234.2z"/>
	</g>
</g>
<g>
	<g>
		<path d="M352,90.4c-2.1,0-4.2-0.9-5.7-2.3c-1.5-1.5-2.3-3.6-2.3-5.7c0-2.1,0.9-4.2,2.3-5.7c1.5-1.5,3.6-2.3,5.7-2.3
			c2.1,0,4.2,0.9,5.7,2.3c1.5,1.5,2.3,3.6,2.3,5.7c0,2.1-0.9,4.2-2.3,5.7C356.2,89.5,354.1,90.4,352,90.4z"/>
	</g>
</g>
<g>
	<g>
		<path d="M58,510c-30.9,0-56-25.1-56-56v-18c0-4.4,3.6-8,8-8h14v-53H10c-4.4,0-8-3.6-8-8V148c0-4.4,3.6-8,8-8h141.7
			c9.5,0,18.3,3.8,24.8,10.7l1.4,1.5l1.4-1.5c6.6-6.9,15.4-10.7,24.8-10.7h25.8c4.4,0,8,3.6,8,8s-3.6,8-8,8h-25.8
			c-10.1,0-18.3,8.2-18.3,18.3v150.8l2.9-1.5c4.8-2.4,10-3.6,15.4-3.6h99.5l-5.2-3.6c-22.5-15.6-37-40.1-39.9-67.1l-0.2-1.8h-5
			c-17.3,0-31.3-14.1-31.3-31.3c0-17.3,14.1-31.3,31.3-31.3h5.1l-0.3-2.3c-0.1-0.4-0.1-0.8-0.1-1.1v-63.1l-59.6-28.8
			c-2.7-1.3-4.5-4.2-4.5-7.2s1.8-5.9,4.5-7.2l150-72.4c1.1-0.5,2.3-0.8,3.5-0.8c1.2,0,2.4,0.3,3.5,0.8l150,72.4l0.1,0
			c2.7,1.4,4.4,4.1,4.4,7.1V144c0,4.4-3.6,8-8,8s-8-3.6-8-8V95.1l-48.1,23.2v63.1c0,0.4,0,0.7-0.1,1.1l-0.3,2.3h5.1
			c17.3,0,31.3,14.1,31.3,31.3c0,17.3-14.1,31.3-31.3,31.3h-5l-0.2,1.8c-2.4,22.2-12.7,42.9-29.1,58.3
			c-16.4,15.5-37.9,24.5-60.3,25.4l-1.9,0.1V367c0,4.4-3.6,8-8,8H40v53h432V279c0-4.4,3.6-8,8-8s8,3.6,8,8v149h14c4.4,0,8,3.6,8,8
			v18c0,30.9-25.1,56-56,56H58z M18,454c0,22.1,17.9,40,40,40h396c22.1,0,40-17.9,40-40v-10H18V454z M204.3,336
			c-10.1,0-18.3,8.2-18.3,18.3c0,0.7-0.1,1.5-0.3,2.2L185,359l153,0v-23H204.3z M18,359h153l-0.7-2.5c-0.2-0.7-0.3-1.5-0.3-2.2
			c0-10.1-8.2-18.3-18.3-18.3H18V359z M18,320h133.7c5.4,0,10.6,1.2,15.4,3.6l2.9,1.5V174.3c0-10.1-8.2-18.3-18.3-18.3H18V320z
			 M274.1,239.2c0,42.9,34.9,77.9,77.9,77.9c20.8,0,40.3-8.1,55-22.8c14.7-14.7,22.8-34.3,22.8-55v-45.5l-74.7,32.8
			c-1,0.4-2.1,0.7-3.2,0.7c-1.1,0-2.2-0.2-3.2-0.7l-74.7-32.8V239.2z M253.4,200.9c-8.4,0-15.3,6.9-15.3,15.3
			c0,8.4,6.9,15.3,15.3,15.3h4.7v-30.6H253.4z M445.9,231.5h4.7c8.4,0,15.3-6.9,15.3-15.3c0-8.4-6.9-15.3-15.3-15.3h-4.7V231.5z
			 M274.1,176.2l77.9,34.3l77.9-34.3v-50.2L355.5,162c-1.1,0.5-2.3,0.8-3.5,0.8s-2.4-0.3-3.5-0.8l-74.4-35.9V176.2z M220.4,82.4
			L352,145.9l107.1-51.7l-0.9-3.8h-78.1c-4.4,0-8-3.6-8-8s3.6-8,8-8h78.1l0.9-3.8L352,18.9L220.4,82.4z"/>
	</g>
</g>
<g>
	<g>
		<path d="M502,196.6c-2.1,0-4.2-0.9-5.7-2.3c-1.5-1.5-2.3-3.6-2.3-5.7c0-2.1,0.9-4.2,2.3-5.7c1.5-1.5,3.6-2.3,5.7-2.3
			c2.1,0,4.2,0.9,5.7,2.3s2.3,3.6,2.3,5.7s-0.9,4.2-2.3,5.7C506.2,195.7,504.1,196.6,502,196.6z"/>
	</g>
</g>
<g>
	<g>
		<path d="M126.8,270c-2.1,0-4.2-0.9-5.7-2.3c-1.5-1.5-2.3-3.5-2.3-5.7c0-2.1,0.9-4.2,2.3-5.7c1.5-1.5,3.5-2.3,5.7-2.3
			c2.1,0,4.2,0.9,5.7,2.3c1.5,1.5,2.3,3.5,2.3,5.7c0,2.1-0.9,4.2-2.3,5.7C131,269.1,128.9,270,126.8,270z"/>
	</g>
</g>
<g>
	<g>
		<path d="M57,270c-4.4,0-8-3.6-8-8s3.6-8,8-8h32c4.4,0,8,3.6,8,8s-3.6,8-8,8H57z"/>
	</g>
</g>
<g>
	<g>
		<path d="M57,222c-4.4,0-8-3.6-8-8s3.6-8,8-8h69.8c4.4,0,8,3.6,8,8s-3.6,8-8,8H57z"/>
	</g>
</g>
</svg>
