<?xml version="1.0" encoding="utf-8"?>
<!-- Generator: Adobe Illustrator 23.0.1, SVG Export Plug-In . SVG Version: 6.00 Build 0)  -->
<svg version="1.1" id="Layer_1" xmlns="http://www.w3.org/2000/svg" xmlns:xlink="http://www.w3.org/1999/xlink" x="0px" y="0px"
	 viewBox="0 0 512 512" style="enable-background:new 0 0 512 512;" xml:space="preserve">
<title>Mobile P</title>
<path d="M176,479c-26.4,0-48-21.6-48-48V81c0-26.4,21.6-48,48-48h160c26.4,0,48,21.6,48,48v350c0,26.4-21.6,48-48,48H176z M144,431
	c0,17.6,14.4,32,32,32h160c17.6,0,32-14.4,32-32v-24H144V431z M368,391V109h-12c-4.4,0-8-3.6-8-8s3.6-8,8-8h12V81
	c0-17.6-14.4-32-32-32H176c-17.6,0-32,14.4-32,32v12h161c4.4,0,8,3.6,8,8s-3.6,8-8,8H144v282H368z"/>
<path d="M324.7,109c-4.4,0-8-3.6-8-8s3.6-8,8-8h11.1c4.4,0,8,3.6,8,8s-3.6,8-8,8H324.7z"/>
<path d="M256,458c-12.7,0-23-10.3-23-23s10.3-23,23-23c12.7,0,23,10.3,23,23C279,447.7,268.7,458,256,458z M256,428
	c-3.9,0-7,3.1-7,7s3.1,7,7,7c3.9,0,7-3.1,7-7C263,431.1,259.9,428,256,428z"/>
<path d="M253.6,236c-4.4,0-8-3.6-8-8s3.6-8,8-8h33.6c4.4,0,8,3.6,8,8s-3.6,8-8,8H253.6z"/>
<path d="M322,236c-4.4,0-8-3.6-8-8s3.6-8,8-8h21.6c4.4,0,8,3.6,8,8s-3.6,8-8,8H322z"/>
<path d="M168.4,292c-4.4,0-8-3.6-8-8s3.6-8,8-8h14.4c4.4,0,8,3.6,8,8s-3.6,8-8,8H168.4z"/>
<path d="M210.4,292c-4.4,0-8-3.6-8-8s3.6-8,8-8H244c4.4,0,8,3.6,8,8s-3.6,8-8,8H210.4z"/>
<path d="M278.8,292c-4.4,0-8-3.6-8-8s3.6-8,8-8h64.8c4.4,0,8,3.6,8,8s-3.6,8-8,8H278.8z"/>
<path d="M168.4,348c-4.4,0-8-3.6-8-8s3.6-8,8-8h14.4c4.4,0,8,3.6,8,8s-3.6,8-8,8H168.4z"/>
<path d="M210.4,348c-4.4,0-8-3.6-8-8s3.6-8,8-8H292c4.4,0,8,3.6,8,8s-3.6,8-8,8H210.4z"/>
<path d="M326.8,348c-4.4,0-8-3.6-8-8s3.6-8,8-8h16.8c4.4,0,8,3.6,8,8s-3.6,8-8,8H326.8z"/>
<path d="M199.4,238.6c-0.9,0-1.7-0.1-2.5-0.4c-4.2-1.4-6.5-5.9-5.1-10.1l30-90c1.1-3.3,4.1-5.5,7.6-5.5c0.9,0,1.7,0.1,2.5,0.4
	c2,0.7,3.7,2.1,4.6,4s1.1,4.1,0.4,6.1l-30,90C205.9,236.4,202.8,238.6,199.4,238.6C199.4,238.6,199.4,238.6,199.4,238.6z"/>
<path d="M179.4,208.6c-2.1,0-4.2-0.9-5.7-2.3l-20-20c-1.5-1.5-2.3-3.5-2.3-5.7s0.8-4.1,2.3-5.7l20-20c1.5-1.5,3.5-2.3,5.6-2.3
	c2.1,0,4.1,0.8,5.6,2.3c3.1,3.1,3.2,8.2,0.1,11.3l-14.4,14.4l14.3,14.3c1.5,1.5,2.3,3.5,2.3,5.7C187.4,205,183.8,208.6,179.4,208.6
	L179.4,208.6z"/>
<path d="M249.4,208.6c-2.1,0-4.1-0.8-5.7-2.3c-1.5-1.5-2.3-3.5-2.3-5.7s0.8-4.1,2.3-5.7l14.3-14.3l-14.3-14.3
	c-3.1-3.1-3.1-8.1,0-11.2c1.5-1.5,3.5-2.4,5.7-2.4c2.1,0,4.1,0.8,5.6,2.3l20,20c1.5,1.5,2.3,3.5,2.3,5.7s-0.8,4.1-2.3,5.7l-20,20
	C253.5,207.7,251.5,208.6,249.4,208.6z"/>
</svg>
