<svg xmlns="http://www.w3.org/2000/svg" xmlns:xlink="http://www.w3.org/1999/xlink" viewBox="0 0 855.332 676.006"><g fill="#3f3d56"><path d="M597.332 584.853h-2V366.006a5.98 5.98 0 0 0-2.213-4.653l1.264-1.55a7.975 7.975 0 0 1 2.95 6.204z"/><path d="M342.776 675.006s51.416-137.11 23.072-221.486-50.757-81.08-50.757-81.08-38.233-9.888-85.694 19.116-59.986 37.574-87.012 25.708-32.3-30.323-98.22-28.345c0 0 34.937-19.116 69.214-1.978s57.35 26.367 92.286 0 83.057-60.645 129.86-40.2c0 0-34.278-33.618-45.484-33.618s-63.94-5.273-81.08-23.07c0 0-24.4-17.14-67.896 25.05s-32.96 42.188-71.85 38.892S0 331.57 0 331.57s45.484 18.457 73.17 9.23 51.416-44.165 75.806-56.03 38.892-27.686 71.85-10.547c0 0-13.843-56.7-40.2-52.076s-84.376.66-123.268-26.367c0 0-30.982-.66-44.825 5.933 0 0 36.255-21.094 67.237-5.933s113.38 13.184 113.38 13.184-7.25-96.24-21.094-102.833-5.273-23.73-30.982-27.027c0 0 31.64-3.955 37.574 17.798S225.45 235.99 225.45 235.99s25.05 50.098 52.735 38.233-10.547-78.443-10.547-78.443l-47.46-21.753s35.596-1.318 57.35 19.116 23.07 86.353 23.07 86.353 54.712 7.9 67.896 37.574c0 0 8.57-26.367-7.9-42.188-4.12-3.955-8.446-10.835-12.617-18.93a167.2 167.2 0 0 1-16.346-100.714c2.456-16.865 3.967-33.355 1.277-37.24-5.933-8.57-30.982-61.304-32.96-75.147S301.907 0 301.907 0s.66 35.596 8.57 46.802S340.8 113.38 340.8 113.38s11.865-24.4 25.708-30.323 34.937-42.188 27.027-59.986c0 0 9.888 27.686 1.978 43.506s-30.323 34.278-30.323 34.278-24.4 82.398-5.933 116.676 54.053 72.5 52.076 97.56v14.502s39.55-37.574 36.914-50.098-5.933-42.188-30.982-59.986-41.53-46.143-23.73-87.012 17.798-48.12 17.798-48.12l-11.865 50.757s-6.592 45.484 11.865 61.304 42.847 44.825 42.847 44.825l-5.273-94.923s-1.318-77.784 74.488-111.402l48.12-20.435-49.44 30.982s-59.327 52.735-55.372 85.035-.66 53.394-.66 53.394 36.914-47.46 80.42-63.282 70.533-71.192 70.533-71.192l36.914-29.004L623.59 56.7s-9.23 42.847-61.304 73.17-85.694 75.147-87.672 102.833l-3.955 52.076s97.56-3.296 119.313-46.143 23.73-127.882 44.825-141.725S695.44 65.92 695.44 65.92l-44.165 36.255s-9.23 29.663-7.25 50.757-14.502 40.87-14.502 40.87 45.484-15.82 70.533-46.143 54.053-58.008 54.053-58.008-34.937 52.076-34.937 54.053-21.094 22.412-18.457 34.937-40.2 27.027-40.2 27.027l-43.506 25.05-13.843 31.64s56.7 1.318 86.353 34.937S793 340.8 793 340.8l-41.53 11.206s-39.55-13.184-77.125-37.574-33.618-46.143-80.42-21.753-110.743 44.825-110.743 44.825 36.914-17.14 103.492 24.4 137.77 13.843 137.77 13.843-15.82 30.323-49.44 32.3-121.3-53.394-150.953-37.574-43.506-3.955-55.372 35.596-33.618 147.658-8.57 208.303l25.05 60.645z"/></g><path d="M590.97 238.625c-17.673 34.8-85.38 43.515-110.16 45.556l-1.153 14.587s97.56-3.296 119.313-46.143S622.7 124.743 643.795 110.9a174.24 174.24 0 0 1 7.266-4.491l1.213-4.235L696.44 65.92S656.9 83.057 635.796 96.9s-23.072 98.878-44.825 141.725zm59.807-53.628a75.57 75.57 0 0 1-12.255 22.804s39.605-13.778 65.254-40.26c4.984-10.937 16.395-22.383 16.395-23.838 0-1.978 34.937-54.053 34.937-54.053s-29.004 27.686-54.053 58.008c-14.196 17.185-34.954 29.7-50.278 37.34zm-238.445 11.44l-1.315-1.228c1.98 6.073 4.946 11.482 9.315 15.228 18.457 15.82 42.847 44.825 42.847 44.825l-5.274-94.923s-.87-51.724 39.916-89.045a317.19 317.19 0 0 1 25.253-25.811l49.44-30.982-48.12 20.435c-75.806 33.618-74.488 111.402-74.488 111.402l5.274 94.923s-24.4-29.004-42.847-44.825zm64.962-24.407c-.144 16.23-2.25 25.882-2.25 25.882s36.9-47.44 80.393-63.272a249.898 249.898 0 0 1 7.848-4.782C615.36 99.537 624.6 56.7 624.6 56.7l30.323-36.255L618 49.45s-27.03 55.35-70.534 71.18c-29.656 10.784-56.244 36.265-70.17 51.4zM420.332 329.1v14.502s39.55-37.574 36.914-50.098c-2.016-9.578-4.43-29.177-16.653-45.83 5.5 12.585 7.186 24.86 8.653 31.83 1.9 8.98-17.9 30.842-29.268 42.493a30.06 30.06 0 0 1 .353 7.103zm-53.055-99.52l.98 1.96c10.108 18.773 25.348 38.728 36.75 57.058-9.215-18.152-25.253-38.9-37.73-59.02zm220.398 132.323c-21.684-13.526-40.22-20.825-55.36-24.523-15.882 5.978-28.954 10.435-35.53 12.624 11.796-3.054 45.972-7.1 98.9 25.9 41.52 25.9 84.833 24.878 111.556 20.44a68.907 68.907 0 0 0 18.214-20.6s-71.192 27.686-137.77-13.843zm-188.26-160.387c-5.316-13.025-6.192-28.523-.085-46.683a142.46 142.46 0 0 1 1.137-19.69l10.38-44.4c-1.914 6.403-6.292 18.756-16.312 41.764-12.685 29.128-7.95 51.9 4.88 69zm291.094 95.787c-20.572-23.315-54.136-31.093-72.782-33.67l-5.57 12.735s56.7 1.318 86.353 34.937c16.45 18.643 46.477 29.985 69.968 36.394L794 340.8s-73.83-9.888-103.492-43.506zm-403.332-9.073c27.686-11.865-10.547-78.443-10.547-78.443l-1.046-.48c9.532 20.1 23.355 56.453 3.593 64.922-18.492 7.925-35.806-11.792-45.267-25.762l.532 1.53s25.05 50.098 52.735 38.233zm90.31 42.848s8.342-25.715-7.33-41.6c3.843 13.678-.67 27.6-.67 27.6-10.2-22.947-45.242-32.874-60.592-36.194.595 7.64.696 12.62.696 12.62s54.712 7.9 67.896 37.574zm33.36-240.336c1.485-4.97 1.486-6.356 1.486-6.356zM81.77 354.925l.4-.126c27.686-9.23 51.417-44.165 75.806-56.03s38.892-27.686 71.85-10.547c0 0-5.766-23.602-16.94-39.1a154.092 154.092 0 0 1 8.94 25.1c-32.96-17.14-47.46-1.318-71.85 10.547s-48.12 46.802-75.806 56.03S1 331.57 1 331.57s30.323 19.116 69.214 22.412l11.555.942zM58.35 195.778a125.944 125.944 0 0 0 16.053 9.405c4.98.84 9.816 2.387 14.36 4.595 19.932 9.754 61.14 12.414 88.002 13.07a91.99 91.99 0 0 0 4.853-.703 17.27 17.27 0 0 1 9.255.898l11.27-.08s-7.25-96.24-21.094-102.833c-.104-.05-.196-.106-.298-.157 8.817 28.287 13.392 89 13.392 89s-82.398 1.978-113.38-13.184-67.237 5.933-67.237 5.933c13.843-6.592 44.825-5.933 44.825-5.933zm298.242 479.228c12.078-37.026 41.125-139.4 18.256-207.486-9.876-29.4-19.03-48.146-26.77-60.105 5.787 11.322 12.114 26.297 18.77 46.105 28.345 84.376-23.072 221.486-23.072 221.486zM99.162 394.222a67.29 67.29 0 0 1 23.218 6.72c27.07 13.536 47.157 22.12 71.614 12.15 5.57-2.943 11.803-6.585 19-10.92l1.682-1.23c34.937-26.367 83.057-60.645 129.86-40.2 0 0-9.46-9.274-20.062-18.08-42.897-10.523-85.857 20.185-117.797 44.3-34.937 26.367-58.008 17.14-92.286 0s-69.214 1.978-69.214 1.978c25.47-.764 41.88 1.524 53.996 5.302zM166.07 99.73a17.32 17.32 0 0 0 2.71 3.466 19.55 19.55 0 0 0-2.71-3.466zm120.447 107.4a32.13 32.13 0 0 1 2.858 3.08c-2.888-6.942-6.454-12.944-10.858-17.08-21.753-20.435-57.35-19.116-57.35-19.116l44.64 20.46a63.75 63.75 0 0 1 20.708 12.656zm47.373-89.146c2.7 3.886 1.18 20.376-1.277 37.24a167.2 167.2 0 0 0 16.346 100.714 117.3 117.3 0 0 0 7.024 12.057 167.36 167.36 0 0 1-15.37-98.771c2.456-16.865 3.967-33.355 1.277-37.24-5.933-8.57-30.982-61.304-32.96-75.147a95.93 95.93 0 0 1-.413-16.175c-5.12-14.528-5.6-40.672-5.6-40.672s-3.955 29.004-1.978 42.847 27.027 66.578 32.96 75.147zm15.9 9.386s6.387-13.117 15.252-22.452l1.137-4.072s22.41-18.458 30.32-34.278c6.123-12.246 1.583-31.593-.78-39.714 3.927 18.706-15.302 50.656-28.223 56.193-11.205 4.802-21.1 21.693-24.48 27.958l6.773 16.365zM395.73 26.864a18.83 18.83 0 0 0-1.197-3.793 75.05 75.05 0 0 1 1.197 3.793zm-232.827 66.39c5.8.7 12.492 2.494 17.6 6.628l-.854-2.98c-5.933-21.753-37.574-17.798-37.574-17.798 14.3 1.833 17.992 7.95 20.838 14.15z" opacity=".1"/><use xlink:href="#B" fill="#3f3d56"/><use xlink:href="#C" fill="#c32626"/><path d="M618.762 530s11.312-11.867 15.942-9.48-13.312 13-13.312 13z" fill="#ffb9b9"/><path d="M618.762 530s11.312-11.867 15.942-9.48-13.312 13-13.312 13z" opacity=".1"/><use xlink:href="#D" fill="#d0cde1"/><path d="M652.13 522.253L623.6 537.93a1.36 1.36 0 0 1-1.998-.59l-6.99-14.614a1.823 1.823 0 0 1 .935-2.19l23.695-12.213a1.384 1.384 0 0 1 1.813.347l11.836 11.15a1.76 1.76 0 0 1-.75 2.434z" fill="#2f2e41"/><path fill="#c32626" d="M650.225 520.094l-26.755 15.293-7.12-12.832 22.952-12.482 10.923 10.02z"/><g fill="#f2f2f2"><ellipse cx="799.853" cy="627.456" rx=".394" ry=".336" transform="rotate(-50.159 594.029 755.579)"/><ellipse cx="809.787" cy="640.585" rx=".263" ry=".224" transform="rotate(-50.159 603.963 768.707)"/></g><use xlink:href="#D" opacity=".1"/><g fill="#ffb9b9"><path d="M611.114 532.278s12.802-10.242 17.07-7.255-14.936 11.095-14.936 11.095z"/><circle cx="594.044" cy="478.935" r="12.376"/><use xlink:href="#E"/></g><use xlink:href="#E" opacity=".1"/><path d="M637.572 567.27s12.802 2.987 14.083 11.522 7.68 33.713 7.68 33.713l6.828 15.8s10.67 19.203 5.974 18.777-11.095-9.815-13.23-9.815-8.535-2.56-8.108-4.267 3.414-6.828 3.414-6.828l-10.325-17.985a43.68 43.68 0 0 1-4.478-11.083c-1.06-4.212-2.267-9.372-2.267-11.046 0-2.987-8.535-4.267-8.535-4.267z" fill="#ffb9b9"/><path d="M595.75 539.96l5.974 17.07s9.388 2.56 16.216 4.694 19.63-.853 20.9 4.267-2.56 14.083-6.4 16.216-5.974 4.267-18.35.853-41.82-4.267-41.82-4.267a21.39 21.39 0 0 1-9.388 2.987c-5.548.427-6.828.853-8.535-.427s.853-1.28 1.707-4.694 1.28-2.134 5.12-5.974 6.828-15.363 8.962-19.203 3.414-11.522 3.414-11.522z" fill="#2f2e41"/><path d="M594.898 489.177a12.494 12.494 0 0 0-5.12 9.815c0 6.4-12.802-6.828-12.802-6.828s6.828-8.535 6.828-11.095 11.095 8.108 11.095 8.108z" fill="#ffb9b9"/><path d="M578.68 486.616s7.68 2.987 9.388 7.255 8.108 13.23 8.108 13.23 8.962 9.388 5.974 19.63-5.548 12.802-5.548 14.51-4.267 4.694-7.68 4.267-16.216-2.134-17.07-3.84-5.974-26.03-2.56-34.993a207.183 207.183 0 0 1 9.388-20.057z" fill="#d0cde1"/><path d="M597.634 479.498c2.77.657 5.487-1.107 7.756-2.857 1.29-.993 2.707-2.4 2.312-4.01-.35-1.418-2.02-2.222-2.264-3.664-.17-1.002.417-1.976.464-2.992a4.228 4.228 0 0 0-2.484-3.624c-1.35-.727-2.88-1.03-4.266-1.68-2.117-.993-3.876-2.783-6.137-3.356-3.088-.783-6.233.884-9.408 1.1-1.922.13-3.868-.275-5.768.04a8.235 8.235 0 0 0-6.597 7.773c-.024 1.358.247 2.873-.564 3.95a5.98 5.98 0 0 1-1.086.983c-2.824 2.284-4.106 6.1-4.252 9.774-.072 1.81.307 3.958 1.912 4.727a7.09 7.09 0 0 0 2.675.372c.926-.04 1.8.383 2.362 1.128.73 1.3-.364 3.194.592 4.32.718.845 2.12.565 2.958-.156s1.362-1.756 2.157-2.526c1.547-1.498 3.84-1.77 5.962-1.998a3.033 3.033 0 0 0 1.75-.573 2.7 2.7 0 0 0 .717-1.47c.28-1.27.283-2.588.01-3.86a2.165 2.165 0 0 1-.05-1.222c.14-.287.357-.53.626-.7 1.314-.987 3.616-2.424 5.324-2.153 1.895.302 3.386 2.22 5.298 2.673z" fill="#2f2e41"/><path d="M580.388 501.98s-5.12 6.828-5.12 14.936 6.4 34.993 9.815 34.993 30.726-14.936 30.726-14.936l-3.84-7.255-19.63 8.535s2.56-39.687-11.95-36.273z" fill="#d0cde1"/><path fill="#c32626" d="M540.332 579.006h98v19h-98z"/><path d="M589.332 599.006a8.01 8.01 0 0 1-8-8v-225a8 8 0 0 1 13.051-6.204l-1.264 1.55a6 6 0 0 0-9.787 4.653v225a6.01 6.01 0 0 0 6 6zm-540 75h806v2h-806z" fill="#3f3d56"/><ellipse cx="744.666" cy="583.003" rx="1" ry="3" transform="rotate(-38.768 499.341 771.905)" fill="#c32626"/><use xlink:href="#B" x="-296" fill="#3f3d56"/><use xlink:href="#C" x="-296" fill="#c32626"/><path d="M326.74 646.84c4.7 17.374 20.798 28.134 20.798 28.134s8.478-17.41 3.778-34.782-20.798-28.134-20.798-28.134-8.478 17.41-3.778 34.782z" fill="#3f3d56"/><g fill="#c32626"><path d="M333.648 643.107c12.897 12.554 14.472 31.854 14.472 31.854s-19.335-1.056-32.23-13.6-14.472-31.854-14.472-31.854 19.335 1.056 32.23 13.6zm-42.746-471.06c-1.12 17.963-14.735 31.733-14.735 31.733s-11.796-15.355-10.675-33.32 14.735-31.733 14.735-31.733 11.796 15.355 10.675 33.32z"/><use xlink:href="#F"/><use xlink:href="#F" x="-34" y="219"/><use xlink:href="#F" x="47" y="303"/><path d="M424.506 90.5c-4.6 17.403-20.622 28.263-20.622 28.263s-8.587-17.355-3.995-34.758 20.61-28.262 20.61-28.262 8.587 17.355 3.995 34.758zm144.834 13.57c-5.397 17.17-21.916 27.273-21.916 27.273s-7.77-17.736-2.373-34.906 21.916-27.273 21.916-27.273 7.77 17.736 2.373 34.906zm156.546 191.098c-9.775 15.112-28.4 20.45-28.4 20.45s-2.764-19.165 7-34.277 28.4-20.45 28.4-20.45 2.764 19.165-7 34.277z"/></g><defs><path id="B" d="M784.53 641.138c-9.83 15.076-7.137 34.25-7.137 34.25s18.633-5.268 28.464-20.345 7.137-34.25 7.137-34.25-18.633 5.268-28.464 20.345z"/><path id="C" d="M791.915 643.803c-.777 17.982-14.125 32.01-14.125 32.01s-12.088-15.127-11.31-33.108 14.125-32.01 14.125-32.01 12.088 15.127 11.31 33.108z"/><path id="D" d="M584.248 504.11s-4.158 7.453-3.07 15.488 11.04 33.817 14.422 33.36 28.443-18.924 28.443-18.924l-4.78-6.674-18.307 11.092s-2.79-39.672-16.71-34.342z"/><path id="E" d="M636.72 565.137s13.23 1.707 12.802 9.815-10.242 41.82-10.242 41.82l-.853 13.23s.853 22.19-1.707 21.764-8.535-15.8-8.535-15.8-7.255-4.694-3.84-8.962 5.974-3.84 5.12-8.535-.427-24.324 2.134-30.3l4.052-9.27-8.32-.546z"/><path id="F" d="M148.986 58.485c15.225 9.6 20.778 28.15 20.778 28.15s-19.132 2.987-34.357-6.612-20.778-28.15-20.778-28.15 19.132-2.987 34.357 6.612z"/></defs></svg>