<svg xmlns="http://www.w3.org/2000/svg" xmlns:xlink="http://www.w3.org/1999/xlink" viewBox="0 0 1022.7 785.8"><defs><linearGradient id="A" x1="690.5" y1="823.4" x2="677.3" y2="495.3" gradientUnits="userSpaceOnUse"><stop offset="0" stop-color="gray" stop-opacity=".3"/><stop offset=".5" stop-color="gray" stop-opacity=".1"/><stop offset="1" stop-color="gray" stop-opacity=".1"/></linearGradient><path id="B" d="M627 521q3.2 4.9 6 10a37 37 0 0 1 3.2 7.2c1.1 4 1.1 8.3 2 12.3 1 4.8 3.3 9.4 3.3 14.3a20.6 20.6 0 0 1-4.2 11.8 55.8 55.8 0 0 1-8.8 9.1 187.6 187.6 0 0 1-12.5-61.2c-.1-2.9-.1-5.9 1-8.6.6-1.7 3.7-6.4 5.7-4.5.7.6 1 3.7 1.4 4.7a36.1 36.1 0 0 0 2.9 4.9z"/><path id="C" d="M586.5 622.2l2.5 17.6a26.8 26.8 0 0 1 .4 5.6c-.3 4.1-2.5 7.8-4.1 11.7s-2.6 8.4-.5 12c.7 1 1.6 2 2.2 3.2a13 13 0 0 1 1 5.6l.7 25a157.3 157.3 0 0 0 23.1-.1 1.3 1.3 0 0 0 .9-.3 1.4 1.4 0 0 0 .3-1c.3-5.8-.7-11.6-.4-17.5l.5-6.4c.1-8.7-4.2-17.2-2.9-25.8a57 57 0 0 1 1.6-6.5c4.1-15 3.2-30.7 2.3-46.2a1 1 0 0 0-.2-.7 1 1 0 0 0-.5-.3 28.4 28.4 0 0 0-25.8 4.9c-1 .9-3.8 1.7-4.6 2.8-1 1.4.3 2.9 1 4.4a56.9 56.9 0 0 1 2.5 12z"/><path id="D" d="M603.7 480.1c.4 3.8 4.1 6.4 7.7 7.9l-22.5 7.2c1.5-2.8.3-6.2-1.2-9a51 51 0 0 0-4-6.4c-.2-.3-.4-.7-.3-1.1a1.1 1.1 0 0 1 .7-.5c4.6-2 9.4-4.2 14.4-5 1.5-.1 4.2-.7 5.3.8s-.3 4.3-.1 6.1z"/></defs><ellipse cx="468.6" cy="660.9" rx="425" ry="33" fill="#c32626" opacity=".1"/><g opacity=".1"><path d="M845 472.8c-2.5-7.7-12.8-11.2-23-7.9a24.8 24.8 0 0 0-4.2 1.8l-2-.4a22.4 22.4 0 0 0 .6-6.8 24.6 24.6 0 0 0 11-21.5 24.6 24.6 0 0 0 10.8-21.4 23.8 23.8 0 0 0 8.2-9.4c5-9.7 3-20.6-4.5-24.3s-17.4 1-22.3 10.8a23.7 23.7 0 0 0-2.6 12.1 24.6 24.6 0 0 0-10.9 21.5 24.6 24.6 0 0 0-10.9 21.5 24.6 24.6 0 0 0-10.9 21.4 23.8 23.8 0 0 0-8.2 9.4 25.5 25.5 0 0 0-2 5.7 21.2 21.2 0 0 0-4.5-4.7 25.4 25.4 0 0 0-1-4.5c-3.3-10.2-12.3-16.4-20-13.9s-11.3 12.9-8 23a23 23 0 0 0 7.6 11.1 25.4 25.4 0 0 0 1 4.5 22 22 0 0 0 10.2 12.8 23.2 23.2 0 0 0-.8 3.9 25.3 25.3 0 0 0-7.6 14.9 25.3 25.3 0 0 0-7.5 14.9 24.6 24.6 0 0 0-5 6.8c-5 9.7-2.9 20.6 4.5 24.4s17.4-1.1 22.3-10.8a24.6 24.6 0 0 0 2.5-8.1 25.3 25.3 0 0 0 7.5-15 25.3 25.3 0 0 0 7.6-14.8 25.2 25.2 0 0 0 7.4-15A25.2 25.2 0 0 0 798 500a24.1 24.1 0 0 0 3.4-4 23.5 23.5 0 0 0 12.3-.8 24.8 24.8 0 0 0 4.2-1.8 23.2 23.2 0 0 0 13.4-.5c10.1-3.3 16.4-12.2 13.8-20z" fill="#3f3d56"/><path d="M827.1 442.4a21.5 21.5 0 0 1-3.4 2.8 23 23 0 0 1-1.1 8.4 26.2 26.2 0 0 0 2-3.4 24.6 24.6 0 0 0 2.5-7.8zM838 421a21.5 21.5 0 0 1-3.5 2.7 23 23 0 0 1-1 8.5 25.6 25.6 0 0 0 2-3.5 24.9 24.9 0 0 0 2.5-7.7zm-24.6-8a22 22 0 0 1 .1-4.4 25 25 0 0 0-4.8 6.5 25.6 25.6 0 0 0-1.5 3.8 22.8 22.8 0 0 1 6.1-6zm-69 129.9a23.6 23.6 0 0 1 3-3.4 23 23 0 0 1 .8-4 25 25 0 0 0-2.3 3.7 25.6 25.6 0 0 0-1.5 3.7zM752 528a23.6 23.6 0 0 1 3-3.4 23 23 0 0 1 .7-3.9 25.7 25.7 0 0 0-2.2 3.6 26.8 26.8 0 0 0-1.5 3.7zm64.3-64.1a20.8 20.8 0 0 1-3.5 2.7 22.4 22.4 0 0 1-.6 6.8 18.8 18.8 0 0 1 2 .5 24.8 24.8 0 0 1 4.2-1.8c10.2-3.4 20.5.2 23 7.9a11.7 11.7 0 0 1 .3 6c3.4-4 4.8-8.8 3.3-13.2-2.5-7.7-12.8-11.2-23-7.9a24.8 24.8 0 0 0-4.2 1.9l-2-.5.5-2.4zm-75.6 86.5a25 25 0 0 0-2.3 3.7 26.6 26.6 0 0 0-1.5 3.7 24.5 24.5 0 0 1 3-3.3 23 23 0 0 1 .8-4.1zm61.7-116a22 22 0 0 1 .2-4.4 25 25 0 0 0-4.8 6.6 25.6 25.6 0 0 0-1.5 3.7 22.8 22.8 0 0 1 6.1-5.9zM786.8 522a24.3 24.3 0 0 1-1 4.4 26.7 26.7 0 0 0 2-3.5 25.5 25.5 0 0 0 1.7-4 24.2 24.2 0 0 1-2.7 3.1zm-15.1 29.8a24.1 24.1 0 0 1-1 4.4 25.6 25.6 0 0 0 2-3.4 26.5 26.5 0 0 0 1.7-4 23.6 23.6 0 0 1-2.7 3zm7.5-14.9a24.1 24.1 0 0 1-1 4.4 26.7 26.7 0 0 0 2.1-3.4 25.5 25.5 0 0 0 1.7-4 24.2 24.2 0 0 1-2.8 3zm15.1-29.8a24 24 0 0 1-1 4.4 25.9 25.9 0 0 0 2-3.5 25.5 25.5 0 0 0 1.7-4 23.2 23.2 0 0 1-2.7 3.1zm-49.4-37.7c7.7-2.5 16.7 3.7 20 13.8a25.7 25.7 0 0 1 1 4.5 21.2 21.2 0 0 1 4.5 4.8 25.5 25.5 0 0 1 2-5.8l1.2-2a21 21 0 0 0-4-4.2 25.4 25.4 0 0 0-1-4.5c-3.4-10.1-12.3-16.3-20-13.8-4.4 1.5-7.5 5.4-8.7 10.4a11.7 11.7 0 0 1 5-3.2zm35.8 8a21.9 21.9 0 0 1 .2-4.4 24.7 24.7 0 0 0-4.8 6.6 25 25 0 0 0-1.5 3.7 23 23 0 0 1 6.1-5.9zm10.9-21.5a21.9 21.9 0 0 1 .2-4.4 24.5 24.5 0 0 0-4.8 6.6 25.6 25.6 0 0 0-1.6 3.7 22.8 22.8 0 0 1 6.2-5.9zM764 566.7a24.3 24.3 0 0 1-1 4.4 25.7 25.7 0 0 0 3.8-7.5 23.6 23.6 0 0 1-2.8 3.1z" opacity=".1"/><path d="M859.9 373.6a23.7 23.7 0 0 0 8.2-9.3c4.9-9.7 2.9-20.6-4.5-24.4s-17.4 1.1-22.3 10.8a23.7 23.7 0 0 0-2.6 12.2 24.6 24.6 0 0 0-11 21.5 23.6 23.6 0 0 0-8.1 9.3 24.7 24.7 0 0 0-1.5 3.7 20.9 20.9 0 0 1 10.7-8 12.2 12.2 0 0 0 15.6 7.8 20.9 20.9 0 0 1 0 13.4 25.5 25.5 0 0 0 2-3.4 23.7 23.7 0 0 0 2.7-12.1 24.6 24.6 0 0 0 10.8-21.5z" fill="#3f3d56"/><path d="M979.2 236a72 72 0 0 0 8.7-4.9l-32.3-23.6 38 19.6a72.1 72.1 0 0 0 27-50.3l-64.6.6 64.8-10.8a72 72 0 0 0-116.6-51.5 72 72 0 0 0-26 69.8 72 72 0 0 0-13.3 8l33.8 47-40.5-41.1a72 72 0 0 0-20.2 65.6 72 72 0 1 0 101 51 72 72 0 0 0 40.2-79.4z" fill="#c32626"/><path d="M844.4 217.7a71.8 71.8 0 0 0-6.4 46.7 72 72 0 1 0 101 51c14.2-6.5-91-105-94.7-97.7z" opacity=".1"/><g fill="#c32626"><circle cx="925.5" cy="102.7" r="10.7"/><circle cx="987.9" cy="109.6" r="10.7"/><circle cx="1012" cy="205.6" r="10.7"/><circle cx="979.5" cy="253.6" r="10.7"/><circle cx="935.1" cy="353.2" r="10.7"/></g><circle cx="935.1" cy="353.2" r="10.7" opacity=".1"/><circle cx="836.4" cy="240.4" r="10.7" fill="#c32626"/><circle cx="836.4" cy="240.4" r="10.7" opacity=".1"/><path d="M825 416.2c-7.1-3.6-9.3-13.7-5.1-23.1l-.6 1.2c-5 9.7-3 20.6 4.5 24.3s17.4-1 22.3-10.8l.6-1.2c-5.1 9-14.6 13.2-21.7 9.6zm-10.6 20.9c-7-3.6-9.2-13.8-5-23.1l-.7 1.1c-5 9.7-2.9 20.6 4.5 24.4s17.4-1 22.3-10.8a26.7 26.7 0 0 0 .6-1.2c-5.1 8.9-14.6 13.2-21.7 9.6zM804 458c-7.1-3.6-9.3-13.8-5.1-23.2l-.7 1.2c-4.9 9.7-2.8 20.6 4.6 24.4s17.4-1.1 22.3-10.8a33 33 0 0 0 .5-1.2c-5 8.9-14.5 13.2-21.6 9.6zm-10.5 20.9c-7.1-3.6-9.3-13.8-5.1-23.1a32.3 32.3 0 0 0-.7 1.1c-4.9 9.7-2.9 20.6 4.5 24.4s17.4-1 22.3-10.8l.6-1.2c-5.1 8.9-14.6 13.1-21.6 9.6zm-10.6 20.8c-7.1-3.6-9.3-13.7-5.1-23.1l-.7 1.2c-4.9 9.7-2.9 20.6 4.5 24.3s17.4-1 22.3-10.8a33 33 0 0 0 .6-1.2c-5 9-14.6 13.2-21.7 9.6zm-10.6 20.9c-7.1-3.6-9.3-13.8-5.1-23.1l-.6 1.1c-5 9.7-3 20.6 4.5 24.4s17.4-1.1 22.4-10.8a26.7 26.7 0 0 0 .5-1.2c-5.1 8.9-14.5 13.2-21.7 9.6zm-10.6 20.9c-7-3.6-9.2-13.8-5-23.2a32.8 32.8 0 0 0-.7 1.2c-4.9 9.7-2.9 20.6 4.5 24.4s17.4-1.1 22.3-10.8l.6-1.2c-5 8.9-14.5 13.2-21.7 9.6zm-10.5 20.9c-7.1-3.6-9.3-13.8-5.1-23.2l-.6 1.2c-5 9.7-3 20.6 4.5 24.4s17.4-1.1 22.3-10.8l.6-1.2c-5.1 8.9-14.6 13.1-21.7 9.6zm-7 13.7c-7-3.6-9.2-13.8-5-23.2l-.7 1.2c-4.9 9.7-2.9 20.6 4.5 24.4s17.4-1.1 22.3-10.8a26.7 26.7 0 0 0 .6-1.2c-5 8.9-14.6 13.2-21.7 9.6z" opacity=".1"/><path d="M935 483.2a37.4 37.4 0 0 0 2-9.8 5.3 5.3 0 0 0 4.3-8.5 5.3 5.3 0 0 0-5.2-2.1 37.3 37.3 0 0 0-19.6-25.4 5.3 5.3 0 0 0-9.5-4.8 5 5 0 0 0-.5 1.5 37.5 37.5 0 0 0-32.9 9.8 37.6 37.6 0 0 0-9.8-.3l-4.3 19.7-.3-19a37.4 37.4 0 0 0-17.7 63.8 37.4 37.4 0 0 0 37.7 8.2 5.3 5.3 0 0 0 2.2 2.2 5.3 5.3 0 0 0 7.4-6.9 37.4 37.4 0 0 0 4.8-4c16 2.7 31.8-5.3 39.3-19.8l-20.2-3.4z" fill="#c32626"/><path d="M903.8 492.7c-7.4-9.8-12-21.4-17.3-32.6a136.4 136.4 0 0 0-7-13.3l-4-4.6-2 1.7a37.6 37.6 0 0 0-9.8-.3l-4.3 19.7-.3-19a37.4 37.4 0 0 0-17.7 63.8 37.4 37.4 0 0 0 37.7 8.2 5.3 5.3 0 0 0 2.3 2.2 5.3 5.3 0 0 0 7.3-6.9 37.4 37.4 0 0 0 4.8-3.9 37.5 37.5 0 0 0 22.4-3.3 52.7 52.7 0 0 1-12.1-11.7z" opacity=".1"/><path d="M772 450.5a5.3 5.3 0 0 0-4.7-7.7 37.4 37.4 0 0 0-11.7-20.8 37.5 37.5 0 0 0 1-11.7l-19.6-3.4 19.1-1.2a38 38 0 0 0-1.4-5.3 5.5 5.5 0 0 0 1.8-2 5.3 5.3 0 0 0-6.6-7.4 37.4 37.4 0 0 0-66.8 31 5.3 5.3 0 0 0-2.7 2.4 5.3 5.3 0 0 0 6.8 7.4 37.5 37.5 0 0 0 7 8.6 37.4 37.4 0 0 0 1.8 23.8l26.4-6.8-23.5 12.3a37.4 37.4 0 0 0 68.9-16.2 5.3 5.3 0 0 0 4.3-3z" fill="#c32626"/><path d="M772 450.5a5.3 5.3 0 0 0-4.7-7.7 37.4 37.4 0 0 0-11.7-20.8l.4-2a13.2 13.2 0 0 0-2 1.8c-3.5 3.9-5.3 9.1-8.8 13-4.2 4.7-10.4 7.1-16.5 7.7s-12.5-.3-18.6-1.5c-5-1-10.2-2.1-15.3-1.6a7 7 0 0 0-1.5.2l1 .8a37.4 37.4 0 0 0 1.7 23.8l26.4-6.8-23.5 12.3a37.4 37.4 0 0 0 68.9-16.3 5.3 5.3 0 0 0 4.3-2.9z" opacity=".1"/><path d="M89.5 511.2c1.3-3.9 6.5-5.6 11.6-4a12.8 12.8 0 0 1 2.1 1 12 12 0 0 1 1-.3 11.3 11.3 0 0 1-.3-3.4 12.5 12.5 0 0 1-5.5-10.8 12 12 0 0 1-4.1-4.7 12 12 0 0 1-1.3-6.1 12 12 0 0 1-4.2-4.7c-2.4-4.9-1.4-10.4 2.3-12.3s8.8.6 11.3 5.4a12 12 0 0 1 1.3 6.2 12.4 12.4 0 0 1 5.5 10.8 12.4 12.4 0 0 1 5.4 10.8 12.4 12.4 0 0 1 5.5 10.8 12 12 0 0 1 4.1 4.7 12.7 12.7 0 0 1 1 3 10.7 10.7 0 0 1 2.3-2.5 12.6 12.6 0 0 1 .5-2.3c1.7-5 6.2-8.2 10.1-7s5.7 6.5 4 11.7a11.7 11.7 0 0 1-3.8 5.5 12.7 12.7 0 0 1-.5 2.3 11.1 11.1 0 0 1-5.1 6.4 12.8 12.8 0 0 1 .4 2 12.6 12.6 0 0 1 2.5 3.4 12.3 12.3 0 0 1 1.3 4.1 12.6 12.6 0 0 1 2.5 3.5 12.4 12.4 0 0 1 1.3 4 12.4 12.4 0 0 1 2.5 3.5c2.5 4.9 1.5 10.4-2.3 12.2s-8.7-.5-11.2-5.4a12.5 12.5 0 0 1-1.3-4 12.7 12.7 0 0 1-3.8-7.6 12.7 12.7 0 0 1-3.8-7.5 12.6 12.6 0 0 1-2.5-3.4 12.7 12.7 0 0 1-1.3-4.1 12.6 12.6 0 0 1-2.5-3.4 12.3 12.3 0 0 1-1.3-4.1 11.6 11.6 0 0 1-1.7-2 11.9 11.9 0 0 1-6.2-.4 13.3 13.3 0 0 1-2-1 11.6 11.6 0 0 1-6.8-.2c-5.1-1.7-8.2-6.2-7-10z" fill="#3f3d56"/><path d="M98.5 495.9a10.7 10.7 0 0 0 1.8 1.4 11.3 11.3 0 0 0 .5 4.2 12 12 0 0 1-1-1.7 12.5 12.5 0 0 1-1.3-3.9zM93 485.1a11.2 11.2 0 0 0 1.8 1.4 11.4 11.4 0 0 0 .5 4.2 12.7 12.7 0 0 1-2.3-5.6zm12.5-4a11.1 11.1 0 0 0-.1-2.2 12.7 12.7 0 0 1 2.4 3.3 13 13 0 0 1 .8 1.8 11.4 11.4 0 0 0-3.1-3zm34.7 65.4a11.7 11.7 0 0 0-1.5-1.7 12.4 12.4 0 0 0-.4-2 13.2 13.2 0 0 1 1.1 1.9 13 13 0 0 1 .8 1.8zm-3.8-7.5a11.7 11.7 0 0 0-1.5-1.7 11.8 11.8 0 0 0-.5-2 12.7 12.7 0 0 1 2 3.7zM104 506.7a10.1 10.1 0 0 0 1.7 1.4 10.9 10.9 0 0 0 .4 3.4 10 10 0 0 0-1 .3 13.3 13.3 0 0 0-2.2-1c-5.1-1.6-10.3.2-11.6 4a5.8 5.8 0 0 0-.1 3 7 7 0 0 1-1.7-6.6c1.3-3.9 6.5-5.6 11.6-4a12.8 12.8 0 0 1 2.1 1 12 12 0 0 1 1-.3 10.3 10.3 0 0 1-.2-1.1zm38 43.6a12.8 12.8 0 0 1 1.2 1.9 13 13 0 0 1 .8 1.8 11.7 11.7 0 0 0-1.5-1.7 12.4 12.4 0 0 0-.4-2zm-31-58.4a11 11 0 0 0-.1-2.2 12.5 12.5 0 0 1 2.4 3.3 12.9 12.9 0 0 1 .8 1.9 11.4 11.4 0 0 0-3.1-3zm7.9 44.1a12 12 0 0 0 .5 2.2 12.6 12.6 0 0 1-2-3.8 11.7 11.7 0 0 0 1.5 1.6zm7.6 15a12.7 12.7 0 0 0 .5 2.2 12 12 0 0 1-1.1-1.7 12.9 12.9 0 0 1-.8-2 13 13 0 0 0 1.4 1.5zm-3.8-7.5a12 12 0 0 0 .5 2.2 12.9 12.9 0 0 1-1.1-1.7 12.6 12.6 0 0 1-.8-2 11.7 11.7 0 0 0 1.4 1.5zm-7.6-15a11.9 11.9 0 0 0 .5 2.2 12.4 12.4 0 0 1-1-1.7 12.2 12.2 0 0 1-.9-2 11.1 11.1 0 0 0 1.4 1.5zm24.8-19c-3.9-1.3-8.4 1.8-10 7a12.6 12.6 0 0 0-.6 2.3 10.6 10.6 0 0 0-2.2 2.4 12.8 12.8 0 0 0-1-3l-.6-1a10.6 10.6 0 0 1 2-2 12.6 12.6 0 0 1 .5-2.3c1.7-5.1 6.2-8.2 10.1-7a7 7 0 0 1 4.3 5.3 6 6 0 0 0-2.5-1.7zm-18 4a11.1 11.1 0 0 0 0-2.2 12.5 12.5 0 0 1 2.3 3.3 13 13 0 0 1 .8 2 11.3 11.3 0 0 0-3.1-3zm-5.5-10.8a11.1 11.1 0 0 0 0-2.2 12.8 12.8 0 0 1 2.3 3.3 13 13 0 0 1 .8 1.9 11.4 11.4 0 0 0-3-3zm13.8 55.8a11.9 11.9 0 0 0 .6 2.3 12.6 12.6 0 0 1-1.1-1.8 12.9 12.9 0 0 1-.8-2 13 13 0 0 0 1.3 1.5z" opacity=".1"/><path d="M82 461.3a12 12 0 0 1-4.1-4.7c-2.5-5-1.5-10.4 2.3-12.3s8.7.5 11.2 5.4a12 12 0 0 1 1.3 6.1 12.4 12.4 0 0 1 5.5 10.9 12 12 0 0 1 4.1 4.7 13.2 13.2 0 0 1 .8 1.8 10.6 10.6 0 0 0-5.4-4 6.2 6.2 0 0 1-7.9 4 10.5 10.5 0 0 0 0 6.8 13.2 13.2 0 0 1-1-1.7 12 12 0 0 1-1.3-6.2 12.4 12.4 0 0 1-5.5-10.8z" fill="#3f3d56"/><path d="M21.9 391.9a36.8 36.8 0 0 1-4.4-2.4l16.3-12-19.1 10A36.3 36.3 0 0 1 1 362l32.5.3L1 357a36.3 36.3 0 0 1 58.9-26.3 36.3 36.3 0 0 1 12.9 35.5 36.7 36.7 0 0 1 6.7 4l-17 23.6 20.4-20.7a36.3 36.3 0 0 1 10.1 33A36.3 36.3 0 1 1 42.1 432 36.3 36.3 0 0 1 22 392z" fill="#c32626"/><path d="M89.8 382.7a36.1 36.1 0 0 1 3.2 23.5A36.3 36.3 0 1 1 42.3 432c-7.2-3.3 45.8-53 47.7-49.3z" opacity=".1"/><g fill="#c32626"><circle cx="49" cy="324.8" r="5.4"/><circle cx="17.5" cy="328.2" r="5.4"/><circle cx="5.4" cy="376.6" r="5.4"/><circle cx="21.8" cy="400.8" r="5.4"/><circle cx="44.1" cy="451" r="5.4"/></g><circle cx="44.1" cy="451" r="5.4" opacity=".1"/><circle cx="93.8" cy="394.1" r="5.4" fill="#c32626"/><circle cx="93.8" cy="394.1" r="5.4" opacity=".1"/><path d="M99.6 482.7c3.6-1.8 4.7-7 2.6-11.6l.3.6c2.5 4.9 1.4 10.3-2.3 12.2s-8.8-.5-11.2-5.4l-.3-.6c2.5 4.5 7.3 6.7 10.9 4.8zm5.3 10.5c3.6-1.8 4.7-6.9 2.6-11.6a11 11 0 0 1 .3.6c2.5 4.9 1.4 10.3-2.3 12.2s-8.8-.5-11.2-5.4l-.3-.6c2.5 4.5 7.3 6.7 10.9 4.8zm5.3 10.5c3.6-1.8 4.7-6.9 2.6-11.6a11.5 11.5 0 0 1 .3.6c2.5 4.9 1.5 10.4-2.3 12.2s-8.7-.5-11.2-5.4l-.3-.6c2.6 4.5 7.3 6.7 10.9 4.8zm5.3 10.6c3.6-1.8 4.7-7 2.6-11.7a11 11 0 0 1 .3.6c2.5 4.9 1.5 10.4-2.2 12.3s-8.8-.6-11.3-5.5l-.3-.6c2.6 4.5 7.4 6.7 11 4.9zm5.4 10.5c3.5-1.8 4.6-7 2.5-11.7a11 11 0 0 1 .4.6c2.4 4.9 1.4 10.4-2.3 12.3s-8.8-.6-11.3-5.5l-.3-.6c2.6 4.5 7.4 6.7 11 4.9zm5.3 10.5c3.6-1.8 4.7-7 2.6-11.7l.3.6c2.5 5 1.4 10.4-2.3 12.3s-8.8-.5-11.2-5.4l-.3-.6c2.5 4.4 7.3 6.6 10.9 4.8zm5.3 10.5c3.6-1.8 4.7-7 2.6-11.7a11 11 0 0 1 .3.6c2.5 5 1.4 10.4-2.3 12.3s-8.8-.6-11.2-5.4l-.3-.6c2.5 4.5 7.3 6.6 10.9 4.8zm5.3 10.5c3.6-1.8 4.7-7 2.6-11.7a11.5 11.5 0 0 1 .3.6c2.5 5 1.5 10.4-2.3 12.3s-8.7-.5-11.2-5.4l-.3-.6c2.6 4.5 7.3 6.6 10.9 4.8zm3.5 6.9c3.6-1.8 4.7-7 2.6-11.7l.3.6c2.5 5 1.5 10.4-2.2 12.3s-8.8-.5-11.3-5.4l-.3-.6c2.6 4.5 7.3 6.6 11 4.8z" opacity=".1"/><path d="M44.2 516.4a18.6 18.6 0 0 1-1-4.9 2.7 2.7 0 0 1-2.2-4.3 2.7 2.7 0 0 1 2.6-1 18.8 18.8 0 0 1 9.9-12.8 2.7 2.7 0 1 1 4.8-2.4 2.4 2.4 0 0 1 .3.7 19 19 0 0 1 16.5 5 18.7 18.7 0 0 1 5-.1l2.2 9.9v-9.6a18.9 18.9 0 0 1 8.8 32 18.9 18.9 0 0 1-18.8 4.3 2.8 2.8 0 0 1-1.2 1 2.7 2.7 0 0 1-3.7-3.4 18.8 18.8 0 0 1-2.4-2 18.9 18.9 0 0 1-19.8-10l10.2-1.7z" fill="#c32626"/><path d="M59.9 521.3c3.8-5 6-10.8 8.7-16.5a66.7 66.7 0 0 1 3.6-6.7l2-2.3a42 42 0 0 1 1 .9 18.7 18.7 0 0 1 5-.2l2.1 10v-9.6a18.9 18.9 0 0 1 8.8 32 18.9 18.9 0 0 1-18.8 4.3 2.8 2.8 0 0 1-1.2 1 2.7 2.7 0 0 1-3.7-3.4 18.8 18.8 0 0 1-2.4-2 19 19 0 0 1-11.3-1.6 26.6 26.6 0 0 0 6.2-6z" opacity=".1"/><path d="M126.3 500a2.7 2.7 0 0 1 1.2-3.6 2.6 2.6 0 0 1 1.2-.3 18.9 18.9 0 0 1 5.9-10.5 18.7 18.7 0 0 1-.6-5.9l10-1.7-9.7-.6a18.6 18.6 0 0 1 .7-2.6 2.6 2.6 0 0 1-.9-1 2.7 2.7 0 0 1 3.4-3.8 18.6 18.6 0 0 1 6.8-5.9 18.8 18.8 0 0 1 26.8 21.5 2.7 2.7 0 0 1 .2 4.9 2.7 2.7 0 0 1-2.3 0 18.7 18.7 0 0 1-3.5 4.4 18.9 18.9 0 0 1-.9 12l-13.2-3.5 11.8 6.3a18.9 18.9 0 0 1-32.8-1.6 19.1 19.1 0 0 1-2-6.6 2.7 2.7 0 0 1-2.1-1.5z" fill="#c32626"/><path d="M126.3 500a2.7 2.7 0 0 1 1.2-3.6 2.6 2.6 0 0 1 1.2-.3 18.9 18.9 0 0 1 5.9-10.5l-.2-1a7.3 7.3 0 0 1 1 1c1.8 2 2.7 4.5 4.4 6.5a13 13 0 0 0 8.4 3.9 31.5 31.5 0 0 0 9.3-.8 27.4 27.4 0 0 1 7.7-.8h.8l-.5.5a18.9 18.9 0 0 1-.9 12l-13.2-3.5 11.8 6.3a18.9 18.9 0 0 1-32.8-1.6 19.1 19.1 0 0 1-2-6.6 2.7 2.7 0 0 1-2.1-1.5z" opacity=".1"/></g><g fill="#c32626"><path d="M346.4 51.9a20.2 20.2 0 0 0-11.8 1.3 17.3 17.3 0 0 1-14 0 19.8 19.8 0 0 0-16.7.3 10.3 10.3 0 0 1-4.7 1.2c-6.8 0-12.3-6.8-13.5-15.7a13 13 0 0 0 3.4-3.6C293 29 299 25 305.9 25s13 4 16.9 10.3a13 13 0 0 0 11.1 6h.2c5.3 0 10 4.4 12.3 10.6z" opacity=".1"/><path d="M366.8 23.9l-10.9 6.9 6.6-12a10.7 10.7 0 0 0-6.6-2.3h-.1a12.9 12.9 0 0 1-2.3-.2l-3.7 2.3 1.6-2.8a13.2 13.2 0 0 1-6.4-4.9l-6.6 4.1 4.1-7.5c-3.8-4.7-9-7.5-14.8-7.5-6.8 0-13 4-16.8 10.4a12.6 12.6 0 0 1-11.2 6h-.3c-7.6 0-13.7 8.6-13.7 19.2s6 19.1 13.7 19.1a10.3 10.3 0 0 0 4.7-1.2 19.7 19.7 0 0 1 16.6-.3 17.4 17.4 0 0 0 14.1 0 19.8 19.8 0 0 1 16.4.4 10.3 10.3 0 0 0 4.8 1.1c7.5 0 13.7-8.6 13.7-19.1a24.4 24.4 0 0 0-3-11.7zM120.3 190.4a29 29 0 0 0-16.7 1.9 24.7 24.7 0 0 1-20.2 0 28.2 28.2 0 0 0-23.6.4 14.8 14.8 0 0 1-6.9 1.7c-9.6 0-17.6-9.7-19.2-22.4a18.4 18.4 0 0 0 4.8-5.2c5.6-9 14.3-15 24.1-15s18.4 5.8 24 14.8a18.5 18.5 0 0 0 16 8.8h.3c7.6 0 14.2 6.1 17.4 15z" opacity=".1"/><path d="M149.6 150.4l-15.6 9.8 9.5-17a15.3 15.3 0 0 0-9.4-3.4h-.3a18.2 18.2 0 0 1-3.2-.3l-5.2 3.4 2.2-4a18.7 18.7 0 0 1-9.2-7l-9.4 6 6-11a27.6 27.6 0 0 0-21.2-10.6c-9.8 0-18.5 5.8-24.1 14.9a18 18 0 0 1-16 8.6h-.5c-10.8 0-19.6 12.2-19.6 27.3s8.7 27.4 19.6 27.4a14.6 14.6 0 0 0 6.8-1.7 28.2 28.2 0 0 1 23.7-.5 24.7 24.7 0 0 0 20 0 28.3 28.3 0 0 1 23.6.5 14.7 14.7 0 0 0 6.7 1.7c10.8 0 19.6-12.2 19.6-27.4a34.8 34.8 0 0 0-4-16.7zM748 90.9a20.2 20.2 0 0 1 11.7 1.3 17.3 17.3 0 0 0 14.1 0 19.8 19.8 0 0 1 16.6.3 10.3 10.3 0 0 0 4.8 1.2c6.7 0 12.3-6.8 13.4-15.7a13 13 0 0 1-3.3-3.6c-4-6.4-10-10.5-17-10.5s-12.8 4-16.8 10.3a13 13 0 0 1-11.2 6.2h-.1c-5.3 0-10 4.2-12.2 10.5z" opacity=".1"/><path d="M727.5 62.9l10.9 6.9-6.6-12a10.8 10.8 0 0 1 6.5-2.4h.2a13 13 0 0 0 2.3-.1l3.6 2.3-1.5-2.9a13.2 13.2 0 0 0 6.5-4.8l6.6 4.2-4.2-7.6c3.9-4.6 9-7.5 14.8-7.5 6.8 0 13 4.1 16.9 10.5a12.6 12.6 0 0 0 11.1 6h.4c7.6 0 13.7 8.5 13.7 19.1s-6.1 19.2-13.7 19.2a10.3 10.3 0 0 1-4.8-1.2 19.7 19.7 0 0 0-16.6-.3 17.4 17.4 0 0 1-14 0 19.8 19.8 0 0 0-16.5.3 10.3 10.3 0 0 1-4.7 1.2c-7.6 0-13.7-8.6-13.7-19.2a24.4 24.4 0 0 1 2.8-11.7z" opacity=".1"/><ellipse cx="615.6" cy="756.9" rx="115" ry="20" opacity=".1"/></g><path d="M555.4 661.9l-178.2-2.3.6-4.6 8.6-75.4h156.5l12.5 82.3z" fill="#d0d2d5"/><path d="M555.3 660.7h-89l-89-1.1.5-4.6h176.6l.9 5.7z" opacity=".1"/><path d="M347.6 656.2H584v5.7H347.6z" fill="#d0d2d5"/><path d="M809.6 126.8c0-8.2-6.6-14.8-14.8-14.9H134.5a14.9 14.9 0 0 0-14.8 15V527h689.9z" fill="#3f3d56"/><path d="M119.7 523.1V570c0 8.2 6.6 14.8 14.8 14.8h660.3c8.2 0 14.8-6.6 14.8-14.8V523z" fill="#d0d2d5"/><path fill="#fff" d="M148.2 137h636.3v359.8H148.2z"/><path d="M468 567a15.4 15.4 0 0 0 12.2-5.9 16 16 0 0 0 1.2-1.8l-8.5-1.4h9.2a15.4 15.4 0 0 0 .3-12.1L470 552l11.3-8.3a15.4 15.4 0 0 0-27.3 1.4 15.4 15.4 0 0 0 1.8 15.9 15.4 15.4 0 0 0 12.2 5.9z" fill="#c32626"/><path d="M483.5 584.8l71 71.4-10.8-71.4h-60.2z" opacity=".1"/><path fill="#444053" d="M147.7 137h637v21h-637z" opacity=".1"/><rect x="368.9" y="140.7" width="191.9" height="12.8" rx=".6" opacity=".3" fill="#c32626"/><path d="M555 148.4h-.4l-.2-.1a3.9 3.9 0 0 0 1-2.5 3.8 3.8 0 0 0-7.6 0 3.8 3.8 0 0 0 3.8 3.8 3.9 3.9 0 0 0 2.5-1l.1.2v.5l3 3 .8-1zm-3.4 0a2.6 2.6 0 0 1-2-4.5 2.6 2.6 0 0 1 4.6 1.9 2.6 2.6 0 0 1-2.6 2.6z" fill="#3f3d56"/><circle cx="159.2" cy="147.6" r="3.9" fill="#fa5959" opacity=".8"/><circle cx="169.8" cy="147.6" r="3.9" fill="#fed253" opacity=".8"/><circle cx="180.4" cy="147.6" r="3.9" fill="#8ccf4d" opacity=".8"/><path d="M500 291.4c-8.7-11.6-21.3-19-35.4-19s-26.7 7.4-35.5 19a38.4 38.4 0 0 0 8.4 12.7 38.3 38.3 0 0 0 62.6-12.7zm-75.5 6.8a9.2 9.2 0 0 1-1.7-1 7 7 0 0 1-2-2.5 7.2 7.2 0 1 0-11.7 1.7 8 8 0 0 0 1.7 1.4 5 5 0 0 1 2 2 14.4 14.4 0 0 0 3.2 4.4 29 29 0 0 0 4.6 3.2 66.3 66.3 0 0 0-3.8 19.5 27 27 0 0 0-7.6 1.3 12.3 12.3 0 0 0-3.5 1.7 8.5 8.5 0 0 0-.9 0 7.2 7.2 0 1 0 6.7 9.7 4.6 4.6 0 0 1 3.8-3 16.8 16.8 0 0 1 1.8-.1 64.4 64.4 0 0 0 8.6 26.6 21 21 0 0 0-8 10.9 3 3 0 0 0-.6.4 6.8 6.8 0 0 0-.8.8 7.2 7.2 0 1 0 12 2.3 4.7 4.7 0 0 1 1.2-5 20.2 20.2 0 0 1 1.7-1.5 42 42 0 0 0 29.8 16.2V323a44.3 44.3 0 0 1-36.5-24.8zm99.8 31.7a8 8 0 0 0-.8 0 13.6 13.6 0 0 0-3.5-1.7 26.9 26.9 0 0 0-7.7-1.2 67.8 67.8 0 0 0-3.7-19.6 29 29 0 0 0 4.5-3.2 15.6 15.6 0 0 0 3.5-4.5 4.2 4.2 0 0 1 1.8-1.8 7.2 7.2 0 1 0-10-3.2 6.8 6.8 0 0 1-2 2.6 18.9 18.9 0 0 1-1.7 1.2 44 44 0 0 1-36.5 24.5v64.3c12-.7 21.7-6.8 29.8-16.2l1.6 1.4a4.9 4.9 0 0 1 1.2 5.2 7.2 7.2 0 1 0 12.1-2.3 6.8 6.8 0 0 0-.8-.8l-.6-.4c-1.1-4-3.7-7.6-8-10.9a64.4 64.4 0 0 0 8.6-26.6 15.9 15.9 0 0 1 1.7 0 4.8 4.8 0 0 1 3.9 3 7.2 7.2 0 0 0 13.8-2.1 7.3 7.3 0 0 0-7.2-7.7z" fill="#c32626"/><path d="M769.6 802.3a9.6 9.6 0 0 0-2.1-2.4c-4.4-4.1-6.4-10.2-7.5-16.1s-1.4-12-3.1-17.8a58.7 58.7 0 0 0-3.5-8.7c-1-2.1-2.3-6.3-4.1-7.8a2.7 2.7 0 0 0-1.3-.6 14.8 14.8 0 0 0-3.6-4.9c-2.9-2.6-6.4-4.6-8.3-8a18 18 0 0 0-2-3.3c-1.2-1.4-3.2-2-4.4-3.5-1.6-1.9-1.2-4.7-1-7.2s0-5.4-2.2-6.7c-1.2-.8-2.9-.7-4.2-1.4-2-1-2.8-3.5-2.8-5.8s.8-4.4 1-6.7c.5-7.1-4.2-14.2-2.4-21.2.7-2.6 2.3-4.9 3.4-7.3a15.4 15.4 0 0 0 1-2.6 35.7 35.7 0 0 0 9.8 2.4c-5.5-12.4-4.1-26.8-6.7-40l.3-.5a20.8 20.8 0 0 0 4.3-11.8c0-5-2.3-9.6-3.4-14.4-.9-4.1-.8-8.4-2-12.5a37.6 37.6 0 0 0-3.2-7.2q-1.8-3.5-3.9-6.8l-3.8-12.8c-1.8-6-3.7-12-7.2-17.1-1.3-1.9-1.7-5.7-3.6-6.8a8.8 8.8 0 0 0-5.2-1c-2.8-1.5-5.2-3.8-5.6-6.9a6.7 6.7 0 0 1 .2-2h.3c4.4-.4 6.7-4.2 9-7.6 3.7-5.5 2.3-13 0-19.2a13 13 0 0 0-3-5.3c-3.2-3-8.3-2.4-12.5-3.8-1.4-.5-2.7-1.2-4-1.6-2.8-.6-5.7.3-8.2 1.6s-4.9 2.9-7.5 3.9-6 1.8-6.6 4.5a5 5 0 0 0 .3 2.7 10.2 10.2 0 0 0 3 4.4 17.8 17.8 0 0 0 11 24.9 51 51 0 0 1 2 3.7c1.2 2.2 2.2 4.9 1.8 7.3a22.4 22.4 0 0 0-2 2.4c-2.9 4-4.5 8.7-6 13.4a141.7 141.7 0 0 0-4.9 18.3c-2.4 5.2-5.4 10.1-7.2 15.6a35.2 35.2 0 0 1-9.3-1.3l-8.5-1.9c-3-.7-6-1.4-8.3-3.3-1.2-1-2.1-2.4-3.4-3.3s-3.7-2.2-5-1.4a4 4 0 0 0-.8.6c-1.2-2.5-2.4-5-3.8-7.5-2.1-3.4-5.2-6.5-9-7.1a9.2 9.2 0 0 0-6.9 1.5c-2.2 1.7-3.7 5-2 7.3a13.3 13.3 0 0 0 1.4 1.4 29.2 29.2 0 0 1 3.1 4.3 22 22 0 0 0 13.5 8.8l-.3 1c-.7 2-2.3 4.6-1.9 6.7l37.6 12.9a23.1 23.1 0 0 0 7.5 1.7 12.2 12.2 0 0 0 3-.4v2c.1 13.2-2 26.3-2.4 39.4 0 2.4 0 5 1.5 7 1.7 2 4.8 2.4 7.4 2l1.8-.5a69.3 69.3 0 0 1 2 10.1l2.4 17.9a27.1 27.1 0 0 1 .4 5.5c-.3 4.2-2.5 8-4 11.8s-2.6 8.5-.5 12.1c.6 1.1 1.6 2.1 2.1 3.3a13.1 13.1 0 0 1 1 5.6l.5 16.2a1.8 1.8 0 0 0-1.3.3c-2 1.6-1.8 9.3-2 11.7-.1 4 0 8-.2 12.1a72.2 72.2 0 0 1-2.6 16.1 10.3 10.3 0 0 1-2.3 4.6 9.7 9.7 0 0 1-4 2.1 46.5 46.5 0 0 1-15.5 2.1c-2 0-4.3-.3-6.2.5s-3.6 3-2.9 5c.6 1.7 2.5 2.5 4.2 3.1a65.5 65.5 0 0 1 11 5.1 29.7 29.7 0 0 0 4.2 2.4 22 22 0 0 0 4.4 1.1l17.7 3c3.6.7 8 1 10.3-2 1.3-1.6 1.4-3.8 1.4-5.8-.1-4-1-8-.4-12a37.1 37.1 0 0 1 1.9-7L700 777c1.8-5.2 3.6-10.5 4.3-16 .2-2 .2-4.3-1.3-5.6a3.5 3.5 0 0 0-1.4-.7c0-4.8-.7-9.6-.4-14.4l.3-3.6a17.6 17.6 0 0 1 2.5 2.9c1.7 2.7 2.3 6.2 5 8 2.2 1.5 5.4 1.4 7 3.6a10.3 10.3 0 0 1 1.1 2.7 19.3 19.3 0 0 0 4 6.4 32 32 0 0 0 2.5 6.3l4.4 9.3a108.6 108.6 0 0 0 5 9.8 27.6 27.6 0 0 1 3.3 6.5c1.4 4.9-.9 10.3-4.5 14s-8.4 5.7-13.2 7.6a3.7 3.7 0 0 0-1.3.8 2.6 2.6 0 0 0-.6 1.8c0 2.3 1.9 4.3 4 5a15.3 15.3 0 0 0 6.9.2c12.8-1.5 25.5-4.6 36.8-10.9a13 13 0 0 0 4.4-3.3 5.1 5.1 0 0 0 .7-5.3z" transform="translate(-88.7 -57)" fill="url(#A)"/><use xlink:href="#B" fill="#2f2e41"/><use xlink:href="#B" opacity=".1"/><path d="M363.4 384.5c-8 8-9 11.4-13.6 13s-21.9 10.4-16.5 20.2l14.8 9.8 2.2 6.7-21.8 38.9s-36-16.5-39.5 7.9-1.3 31-2.3 44 .3 16.7-2.8 16.7-4.4-8.5-4.4-8.5l-.6-1.1c-4.7-9.8-36.7-81.7 14.5-131.1 0 0 23.7-1.6 29.5-28.8 3.9-18.8 17.7-17.1 26.8-13.3a30.4 30.4 0 0 1 8.3 4.8 40.5 40.5 0 0 1 5.8 7c2.6 4.1 4 9.3-.5 13.9z" fill="#d0d2d5"/><path d="M348.1 427.5l2.2 6.7-21.8 38.9s-36-16.5-39.5 7.9-1.3 31-2.3 44 .3 16.7-2.8 16.7-4.5-8.5-4.5-8.5l-.5-1.1c-1.6-12.2-9.7-83.3 19.6-79.5 0 0 23.7 11 27.5 6.6a716 716 0 0 0 21.7-31.9zm15.7-56.9L349.5 387s-16.8 22.5-20.2 21.5a16.2 16.2 0 0 0-3.2-.3 6.2 6.2 0 0 1-4-10.4c5.7-6 16.3-17.4 17-20s7.3-13.6 10.7-19a30.4 30.4 0 0 1 8.2 4.8 40.5 40.5 0 0 1 6 7z" opacity=".1"/><path d="M772.4 606.7c-2.5 5-15 23.3-20.5 31.3l-2.6 3.8s-1 6.7-17.4-1.6-401.5-170.7-401.5-170.7l-2.6-7.8 19-28.5L769 596.3s6.7 4.1 3.5 10.4z" fill="#454b69"/><path d="M752 638l-2.7 3.8s-1 6.7-17.4-1.6-401.4-170.7-401.4-170.7l-2.6-7.8z" opacity=".1"/><path d="M519.6 531.9c-3.9-.6-8.2-.3-11.3 2.2a9.3 9.3 0 0 0-3.2 6.2c-.3 2.7 1.3 6 4.1 6.2a13.2 13.2 0 0 0 2-.1 29.9 29.9 0 0 1 5.3.4 21.4 21.4 0 0 0 18.2-7.3c2.4-3-.8-4.3-3.6-5-3.8-.7-7.6-2-11.5-2.6z" fill="#fbbebe"/><use xlink:href="#C" fill="#3f3d56"/><use xlink:href="#C" opacity=".1"/><path d="M632.9 616.9c-1.2 2.4-2.7 4.7-3.4 7.3-1.9 6.9 2.9 14 2.3 21-.2 2.3-.9 4.5-1 6.7s.8 4.7 2.8 5.7c1.3.7 3 .6 4.3 1.4 2 1.3 2.3 4.2 2.1 6.7s-.6 5.2 1 7.1c1.2 1.5 3.2 2.1 4.5 3.5a17.2 17.2 0 0 1 2 3.3c1.8 3.3 5.3 5.4 8.2 8s5.3 6.4 4 10c-1 2.7-3.6 4.4-6.1 5.6a65 65 0 0 1-14.6 5.2 3.5 3.5 0 0 1-1.7 0 3.6 3.6 0 0 1-1.4-1c-3-2.8-6-5.9-7.4-9.7a10 10 0 0 0-1.1-2.7c-1.6-2.2-4.9-2.1-7-3.6-2.7-1.8-3.3-5.3-5-8s-4.2-4.2-6-6.5c-3-3.9-3.8-9-6-13.5-1-1.9-2.1-3.7-2.9-5.6a30.6 30.6 0 0 1-1.3-7.3c-1.4-11.6-5-23.4-2.8-35 .5-2.5 1.3-5 1.6-7.6.6-4.5-.3-9.2.4-13.7a3.8 3.8 0 0 1 1.5-2.9 4 4 0 0 1 1.7-.3 117.3 117.3 0 0 1 17.8.4c3 .3 6.3.9 8.1 3.3 1.6 2.1 1.5 5 2 7.5.6 3.1 2.2 4.8 3.9 7.3s.7 4.9-.5 7.4z" fill="#3f3d56"/><path d="M609.8 698.2c1.6 0 3.4-.1 4.6.9 1.5 1.2 1.5 3.5 1.3 5.5-.7 5.4-2.5 10.7-4.3 16l-5.3 15.6a36.6 36.6 0 0 0-1.9 6.8c-.5 4 .3 8 .4 12 0 2-.1 4.3-1.4 5.9-2.3 2.9-6.7 2.6-10.3 2l-17.7-3a21 21 0 0 1-4.4-1 30.6 30.6 0 0 1-4.2-2.5 65.4 65.4 0 0 0-11-5c-1.7-.6-3.5-1.4-4.1-3-.7-2 .8-4.3 2.8-5s4.1-.7 6.3-.6a47 47 0 0 0 15.4-2 9.7 9.7 0 0 0 4-2.2 10 10 0 0 0 2.4-4.7 70.2 70.2 0 0 0 2.6-16l.3-12c0-2.4-.2-10 2-11.6 1.5-1.2 8 2.1 10.2 2.6a50 50 0 0 0 12.3 1.3zm58.4 11.1c1.7 5.7 2 11.8 3 17.7s3.2 11.9 7.6 16a9.9 9.9 0 0 1 2.1 2.4 5 5 0 0 1-.7 5.2 13.1 13.1 0 0 1-4.4 3.4c-11.3 6.1-24 9.2-36.8 10.8a15.5 15.5 0 0 1-6.8-.3c-2.2-.7-4.1-2.7-4.1-5a2.5 2.5 0 0 1 .6-1.7 3.7 3.7 0 0 1 1.3-.8c4.8-2 9.5-4 13.2-7.6s6-9 4.5-13.9a27.4 27.4 0 0 0-3.3-6.4 108.3 108.3 0 0 1-5-9.7l-4.4-9.2a23.6 23.6 0 0 1-2.8-8.5 40.6 40.6 0 0 0 16.2-2.6 25.5 25.5 0 0 0 6.7-4c1.7-1.4 3.2-4 5.5-2.2 1.8 1.5 3 5.7 4 7.8a57 57 0 0 1 3.6 8.6z" fill="#2f2e41"/><use xlink:href="#D" fill="#fbbebe"/><use xlink:href="#D" opacity=".1"/><circle cx="590.6" cy="465.6" r="17.6" fill="#fbbebe"/><path d="M575.4 610.6c1.7 2 4.7 2.5 7.3 2 6.2-1 11.2-5.5 17.2-7.2 7.4-2 15.2.6 22.2 3.8s13.9 7 21.5 7.5c-7-15.4-3-33.8-9.6-49.3-1.6-3.8-3.8-7.5-4.2-11.6-.4-5 2.1-10 2.5-15 .4-4.5-1-9-2.3-13.3l-4.8-15.9c-1.8-5.9-3.7-11.9-7.2-17-1.3-1.8-1.6-5.6-3.6-6.8-4.3-2.4-10.8.7-15.4.8s-8.9 3.5-11.6 7.2c-2.8 4-4.5 8.7-6 13.3a126.2 126.2 0 0 0-5.3 21.2l-.4 3.3c-1 10.3.5 20.6.5 30.9.1 13.2-2 26.2-2.4 39.3 0 2.4 0 5 1.6 6.8z" fill="#2f2e41"/><path d="M576.3 564.5c3.4-.9 6.5-3 9.2-5.5a38.7 38.7 0 0 0 6.2-7 49.9 49.9 0 0 0 5.2-11 129.4 129.4 0 0 0 7-32.4c.3-3 .4-6.2-1.4-8.6a7.2 7.2 0 0 0-8.8-2 14.4 14.4 0 0 0-5.3 5.6c-2.8 4.4-5.6 9-7.4 13.8l-2.2 6.6a61 61 0 0 1-2.7 6.4l-.4 3.2c-1 10.3.5 20.6.6 30.9z" opacity=".1"/><path d="M602.5 498.1c1.8 2.4 1.7 5.6 1.4 8.6a129.2 129.2 0 0 1-7 32.3 49.4 49.4 0 0 1-5.3 11.1 39 39 0 0 1-6.1 7c-3.4 3.1-7.6 5.9-12.2 6a23.2 23.2 0 0 1-7.5-1.7l-37.6-12.8c-.4-2.1 1.2-4.6 1.9-6.7l2-6c.5-1.6 1.2-3.3 2.7-4.2s3.8.3 5 1.3 2.3 2.3 3.5 3.3c2.3 2 5.3 2.6 8.3 3.3l8.4 1.9a35.2 35.2 0 0 0 9.4 1.2c2.3-7.1 6.8-13.5 9.3-20.6l2.2-6.6c1.8-4.9 4.7-9.4 7.5-13.8 1.4-2.2 3-4.5 5.3-5.7a7.2 7.2 0 0 1 8.8 2.1zm-6.2-28.5a8.9 8.9 0 0 0-1.1-3.3 2.8 2.8 0 0 0-3-1.3c-1.8.5-2.4 3.2-4.2 3.3-1.2 0-2.1-1.2-2.5-2.4s-.6-2.5-1.6-3.3a5.7 5.7 0 0 0-2.1-1c-4.3-1.4-8.7-3.9-10.1-8.1a4.8 4.8 0 0 1-.3-2.7c.7-2.7 4-3.5 6.6-4.5s5-2.6 7.5-4 5.4-2 8.1-1.4a42.5 42.5 0 0 1 4.1 1.5c4.2 1.5 9.2.8 12.5 3.8a12.8 12.8 0 0 1 3 5.2c2.2 6.2 3.6 13.6 0 19-2.4 3.5-4.6 7.3-9 7.7-5.1.4-7.1-4.2-8-8.5z" fill="#2f2e41"/><path d="M588.4 463.8c-.4-1.2-.6-2.5-1.5-3.4a5.7 5.7 0 0 0-2.2-1c-4.3-1.3-8.7-3.8-10-8a5 5 0 0 1-.3-2.8 3.4 3.4 0 0 1 .5-1.2c-1.6.7-3 1.7-3.4 3.3a4.8 4.8 0 0 0 .2 2.8c1.4 4.2 5.8 6.7 10.1 8a5.7 5.7 0 0 1 2.2 1c1 .9 1.1 2.2 1.5 3.4s1.3 2.5 2.5 2.4 1.9-1.2 2.7-2.1c-1.1-.2-2-1.3-2.3-2.4zm18.7 12.2c-5.1.4-7.1-4.2-8-8.5a8.7 8.7 0 0 0-1-3.3 2.8 2.8 0 0 0-3-1.4 5.3 5.3 0 0 0-2.2 2 3 3 0 0 1 2.3 1.4 8.9 8.9 0 0 1 1 3.3c.8 4.3 2.9 9 8 8.6a8.3 8.3 0 0 0 5.3-2.8 7.5 7.5 0 0 1-2.4.7z" opacity=".1"/><ellipse cx="813.1" cy="655.8" rx="32.3" ry="6.2" fill="#c32626"/><g fill="#3f3d56"><ellipse cx="812.6" cy="653.1" rx="3.8" ry="4.9"/><ellipse cx="812.6" cy="647.1" rx="3.8" ry="4.9"/><ellipse cx="812.6" cy="641.1" rx="3.8" ry="4.9"/><ellipse cx="812.6" cy="635.1" rx="3.8" ry="4.9"/><ellipse cx="812.6" cy="629.1" rx="3.8" ry="4.9"/><ellipse cx="812.6" cy="623.1" rx="3.8" ry="4.9"/><ellipse cx="812.6" cy="617" rx="3.8" ry="4.9"/></g><path d="M826.6 575.9a18.2 18.2 0 0 0 1.4-2l-9.8-1.7h10.7a18.1 18.1 0 0 0 .3-14.2l-14.3 7.5 13.2-9.8a18 18 0 0 0-32 1.6 18 18 0 0 0 2.3 18.6 18 18 0 0 0-2.1 3.3l12.8 6.7-13.6-4.6a18 18 0 0 0 2.9 16.8 18 18 0 1 0 28.3 0 18 18 0 0 0 0-22.2z" fill="#c32626"/><path d="M794.5 587a18 18 0 0 0 3.9 11.1 18 18 0 1 0 28.3 0c2.4-3-32.2-13.1-32.2-11.1z" opacity=".1"/><ellipse cx="148.4" cy="776.9" rx="46.5" ry="8.9" fill="#c32626"/><g fill="#3f3d56"><ellipse cx="147.6" cy="773.1" rx="5.4" ry="7.1"/><ellipse cx="147.6" cy="764.4" rx="5.4" ry="7.1"/><ellipse cx="147.6" cy="755.8" rx="5.4" ry="7.1"/><ellipse cx="147.6" cy="747.1" rx="5.4" ry="7.1"/><ellipse cx="147.6" cy="738.4" rx="5.4" ry="7.1"/><ellipse cx="147.6" cy="729.8" rx="5.4" ry="7.1"/><ellipse cx="147.6" cy="721.1" rx="5.4" ry="7.1"/></g><path d="M167.9 661.8a27.2 27.2 0 0 0 2-3l-14.2-2.3 15.4.1a26 26 0 0 0 .5-20.5l-20.7 10.7 19-14a26 26 0 0 0-46 2.2 26 26 0 0 0 3.2 26.8 25.8 25.8 0 0 0-3 4.7l18.5 9.6-19.7-6.6A26 26 0 0 0 127 694a26 26 0 1 0 40.8 0 26 26 0 0 0 0-32z" fill="#c32626"/><path d="M121.6 677.9a25.9 25.9 0 0 0 5.5 16 26 26 0 1 0 40.8 0c3.5-4.4-46.3-19-46.3-16z" opacity=".1"/></svg>